{
	"asset":{
		"generator":"Khronos glTF Blender I/O v4.5.49",
		"version":"2.0"
	},
	"scene":0,
	"scenes":[
		{
			"name":"Scene",
			"nodes":[
				0,
				1
			]
		}
	],
	"nodes":[
		{
			"mesh":0,
			"name":"left"
		},
		{
			"mesh":1,
			"name":"right"
		}
	],
	"materials":[
		{
			"doubleSided":true,
			"name":"Material.021",
			"pbrMetallicRoughness":{
				"baseColorTexture":{
					"index":0
				},
				"metallicFactor":0,
				"roughnessFactor":0.5
			}
		},
		{
			"doubleSided":true,
			"name":"Material.022",
			"pbrMetallicRoughness":{
				"baseColorTexture":{
					"index":1
				},
				"metallicFactor":0,
				"roughnessFactor":0.5
			}
		}
	],
	"meshes":[
		{
			"name":"left.006",
			"primitives":[
				{
					"attributes":{
						"POSITION":0,
						"NORMAL":1,
						"TEXCOORD_0":2
					},
					"indices":3,
					"material":0
				}
			]
		},
		{
			"name":"right.006",
			"primitives":[
				{
					"attributes":{
						"POSITION":4,
						"NORMAL":5,
						"TEXCOORD_0":6
					},
					"indices":7,
					"material":1
				}
			]
		}
	],
	"textures":[
		{
			"sampler":0,
			"source":0
		},
		{
			"sampler":0,
			"source":1
		}
	],
	"images":[
		{
			"mimeType":"image/png",
			"name":"applied_texture_l",
			"uri":"applied_texture_l.png"
		},
		{
			"mimeType":"image/png",
			"name":"applied_texture_r",
			"uri":"applied_texture_r.png"
		}
	],
	"accessors":[
		{
			"bufferView":0,
			"componentType":5126,
			"count":3056,
			"max":[
				1.560880184173584,
				28.617177963256836,
				4.93781852722168
			],
			"min":[
				-4.296057224273682,
				20.979787826538086,
				-2.6142373085021973
			],
			"type":"VEC3"
		},
		{
			"bufferView":1,
			"componentType":5126,
			"count":3056,
			"type":"VEC3"
		},
		{
			"bufferView":2,
			"componentType":5126,
			"count":3056,
			"type":"VEC2"
		},
		{
			"bufferView":3,
			"componentType":5123,
			"count":14850,
			"type":"SCALAR"
		},
		{
			"bufferView":4,
			"componentType":5126,
			"count":3056,
			"max":[
				1.5608843564987183,
				-20.979793548583984,
				4.9378132820129395
			],
			"min":[
				-4.296059608459473,
				-28.617191314697266,
				-2.614227294921875
			],
			"type":"VEC3"
		},
		{
			"bufferView":5,
			"componentType":5126,
			"count":3056,
			"type":"VEC3"
		},
		{
			"bufferView":6,
			"componentType":5126,
			"count":3056,
			"type":"VEC2"
		},
		{
			"bufferView":7,
			"componentType":5123,
			"count":14850,
			"type":"SCALAR"
		}
	],
	"bufferViews":[
		{
			"buffer":0,
			"byteLength":36672,
			"byteOffset":0,
			"target":34962
		},
		{
			"buffer":0,
			"byteLength":36672,
			"byteOffset":36672,
			"target":34962
		},
		{
			"buffer":0,
			"byteLength":24448,
			"byteOffset":73344,
			"target":34962
		},
		{
			"buffer":0,
			"byteLength":29700,
			"byteOffset":97792,
			"target":34963
		},
		{
			"buffer":0,
			"byteLength":36672,
			"byteOffset":127492,
			"target":34962
		},
		{
			"buffer":0,
			"byteLength":36672,
			"byteOffset":164164,
			"target":34962
		},
		{
			"buffer":0,
			"byteLength":24448,
			"byteOffset":200836,
			"target":34962
		},
		{
			"buffer":0,
			"byteLength":29700,
			"byteOffset":225284,
			"target":34963
		}
	],
	"samplers":[
		{
			"magFilter":9729,
			"minFilter":9987
		}
	],
	"buffers":[
		{
			"byteLength":254984,
			"uri":"v_glove_sporty.bin"
		}
	]
}
