{
	"asset":{
		"generator":"Khronos glTF Blender I/O v4.5.49",
		"version":"2.0"
	},
	"scene":0,
	"scenes":[
		{
			"name":"Scene",
			"nodes":[
				0,
				1
			]
		}
	],
	"nodes":[
		{
			"mesh":0,
			"name":"left",
			"scale":[
				3,
				3,
				3
			]
		},
		{
			"mesh":1,
			"name":"right",
			"scale":[
				3,
				3,
				3
			]
		}
	],
	"materials":[
		{
			"doubleSided":true,
			"name":"Material.013",
			"pbrMetallicRoughness":{
				"baseColorTexture":{
					"index":0
				},
				"metallicFactor":0,
				"roughnessFactor":0.5
			}
		},
		{
			"doubleSided":true,
			"name":"Material.014",
			"pbrMetallicRoughness":{
				"baseColorTexture":{
					"index":1
				},
				"metallicFactor":0,
				"roughnessFactor":0.5
			}
		}
	],
	"meshes":[
		{
			"name":"left.003",
			"primitives":[
				{
					"attributes":{
						"POSITION":0,
						"NORMAL":1,
						"TEXCOORD_0":2
					},
					"indices":3,
					"material":0
				}
			]
		},
		{
			"name":"right.003",
			"primitives":[
				{
					"attributes":{
						"POSITION":4,
						"NORMAL":5,
						"TEXCOORD_0":6
					},
					"indices":7,
					"material":1
				}
			]
		}
	],
	"textures":[
		{
			"sampler":0,
			"source":0
		},
		{
			"sampler":0,
			"source":1
		}
	],
	"images":[
		{
			"mimeType":"image/png",
			"name":"applied_texture_l",
			"uri":"applied_texture_l.png"
		},
		{
			"mimeType":"image/png",
			"name":"applied_texture_r",
			"uri":"applied_texture_r.png"
		}
	],
	"accessors":[
		{
			"bufferView":0,
			"componentType":5126,
			"count":3813,
			"max":[
				1.5989670753479004,
				28.596866607666016,
				4.971868991851807
			],
			"min":[
				-4.288124084472656,
				20.752775192260742,
				-2.6390960216522217
			],
			"type":"VEC3"
		},
		{
			"bufferView":1,
			"componentType":5126,
			"count":3813,
			"type":"VEC3"
		},
		{
			"bufferView":2,
			"componentType":5126,
			"count":3813,
			"type":"VEC2"
		},
		{
			"bufferView":3,
			"componentType":5123,
			"count":18579,
			"type":"SCALAR"
		},
		{
			"bufferView":4,
			"componentType":5126,
			"count":3863,
			"max":[
				1.598971962928772,
				-20.75278091430664,
				4.971858501434326
			],
			"min":[
				-4.2881245613098145,
				-28.596881866455078,
				-2.639091730117798
			],
			"type":"VEC3"
		},
		{
			"bufferView":5,
			"componentType":5126,
			"count":3863,
			"type":"VEC3"
		},
		{
			"bufferView":6,
			"componentType":5126,
			"count":3863,
			"type":"VEC2"
		},
		{
			"bufferView":7,
			"componentType":5123,
			"count":18579,
			"type":"SCALAR"
		}
	],
	"bufferViews":[
		{
			"buffer":0,
			"byteLength":45756,
			"byteOffset":0,
			"target":34962
		},
		{
			"buffer":0,
			"byteLength":45756,
			"byteOffset":45756,
			"target":34962
		},
		{
			"buffer":0,
			"byteLength":30504,
			"byteOffset":91512,
			"target":34962
		},
		{
			"buffer":0,
			"byteLength":37158,
			"byteOffset":122016,
			"target":34963
		},
		{
			"buffer":0,
			"byteLength":46356,
			"byteOffset":159176,
			"target":34962
		},
		{
			"buffer":0,
			"byteLength":46356,
			"byteOffset":205532,
			"target":34962
		},
		{
			"buffer":0,
			"byteLength":30904,
			"byteOffset":251888,
			"target":34962
		},
		{
			"buffer":0,
			"byteLength":37158,
			"byteOffset":282792,
			"target":34963
		}
	],
	"samplers":[
		{
			"magFilter":9729,
			"minFilter":9987
		}
	],
	"buffers":[
		{
			"byteLength":319952,
			"uri":"v_glove_motorcycle.bin"
		}
	]
}
