{
	"asset":{
		"generator":"Khronos glTF Blender I/O v4.5.49",
		"version":"2.0"
	},
	"scene":0,
	"scenes":[
		{
			"name":"Scene",
			"nodes":[
				0,
				1,
				2,
				3
			]
		}
	],
	"nodes":[
		{
			"mesh":0,
			"name":"left",
			"scale":[
				3,
				3,
				3
			]
		},
		{
			"mesh":1,
			"name":"left_2",
			"scale":[
				3,
				3,
				3
			]
		},
		{
			"mesh":2,
			"name":"right",
			"scale":[
				3,
				3,
				3
			]
		},
		{
			"mesh":3,
			"name":"right_2",
			"scale":[
				3,
				3,
				3
			]
		}
	],
	"materials":[
		{
			"doubleSided":true,
			"name":"Material.001",
			"pbrMetallicRoughness":{
				"baseColorTexture":{
					"index":0
				},
				"metallicFactor":0,
				"roughnessFactor":0.5
			}
		},
		{
			"doubleSided":true,
			"name":"Material.002",
			"pbrMetallicRoughness":{
				"baseColorTexture":{
					"index":1
				},
				"metallicFactor":0,
				"roughnessFactor":0.5
			}
		},
		{
			"doubleSided":true,
			"name":"Material.003",
			"pbrMetallicRoughness":{
				"baseColorTexture":{
					"index":2
				},
				"metallicFactor":0,
				"roughnessFactor":0.5
			}
		},
		{
			"doubleSided":true,
			"name":"Material.004",
			"pbrMetallicRoughness":{
				"baseColorTexture":{
					"index":3
				},
				"metallicFactor":0,
				"roughnessFactor":0.5
			}
		}
	],
	"meshes":[
		{
			"name":"left",
			"primitives":[
				{
					"attributes":{
						"POSITION":0,
						"NORMAL":1,
						"TEXCOORD_0":2
					},
					"indices":3,
					"material":0
				}
			]
		},
		{
			"name":"left_2",
			"primitives":[
				{
					"attributes":{
						"POSITION":4,
						"NORMAL":5,
						"TEXCOORD_0":6
					},
					"indices":7,
					"material":1
				}
			]
		},
		{
			"name":"right",
			"primitives":[
				{
					"attributes":{
						"POSITION":8,
						"NORMAL":9,
						"TEXCOORD_0":10
					},
					"indices":11,
					"material":2
				}
			]
		},
		{
			"name":"right_2",
			"primitives":[
				{
					"attributes":{
						"POSITION":12,
						"NORMAL":13,
						"TEXCOORD_0":14
					},
					"indices":15,
					"material":3
				}
			]
		}
	],
	"textures":[
		{
			"sampler":0,
			"source":0
		},
		{
			"sampler":0,
			"source":0
		},
		{
			"sampler":0,
			"source":1
		},
		{
			"sampler":0,
			"source":1
		}
	],
	"images":[
		{
			"mimeType":"image/png",
			"name":"applied_texture_l",
			"uri":"applied_texture_l.png"
		},
		{
			"mimeType":"image/png",
			"name":"applied_texture_r",
			"uri":"applied_texture_r.png"
		}
	],
	"accessors":[
		{
			"bufferView":0,
			"componentType":5126,
			"count":1857,
			"max":[
				6.398105621337891,
				-8.191890716552734,
				3.8857860565185547
			],
			"min":[
				2.322756767272949,
				-14.889284133911133,
				-2.9378037452697754
			],
			"type":"VEC3"
		},
		{
			"bufferView":1,
			"componentType":5126,
			"count":1857,
			"type":"VEC3"
		},
		{
			"bufferView":2,
			"componentType":5126,
			"count":1857,
			"type":"VEC2"
		},
		{
			"bufferView":3,
			"componentType":5123,
			"count":9732,
			"type":"SCALAR"
		},
		{
			"bufferView":4,
			"componentType":5126,
			"count":557,
			"max":[
				6.320361137390137,
				-9.028242111206055,
				3.458531379699707
			],
			"min":[
				3.297236442565918,
				-14.639192581176758,
				-1.123095989227295
			],
			"type":"VEC3"
		},
		{
			"bufferView":5,
			"componentType":5126,
			"count":557,
			"type":"VEC3"
		},
		{
			"bufferView":6,
			"componentType":5126,
			"count":557,
			"type":"VEC2"
		},
		{
			"bufferView":7,
			"componentType":5123,
			"count":1902,
			"type":"SCALAR"
		},
		{
			"bufferView":8,
			"componentType":5126,
			"count":1825,
			"max":[
				-2.468418598175049,
				-8.012240409851074,
				1.5914478302001953
			],
			"min":[
				-7.757274627685547,
				-14.82177448272705,
				-4.524347305297852
			],
			"type":"VEC3"
		},
		{
			"bufferView":9,
			"componentType":5126,
			"count":1825,
			"type":"VEC3"
		},
		{
			"bufferView":10,
			"componentType":5126,
			"count":1825,
			"type":"VEC2"
		},
		{
			"bufferView":11,
			"componentType":5123,
			"count":9642,
			"type":"SCALAR"
		},
		{
			"bufferView":12,
			"componentType":5126,
			"count":586,
			"max":[
				-2.468418598175049,
				-8.944212913513184,
				1.5914478302001953
			],
			"min":[
				-7.394609451293945,
				-14.539961814880371,
				-2.2871932983398438
			],
			"type":"VEC3"
		},
		{
			"bufferView":13,
			"componentType":5126,
			"count":586,
			"type":"VEC3"
		},
		{
			"bufferView":14,
			"componentType":5126,
			"count":586,
			"type":"VEC2"
		},
		{
			"bufferView":15,
			"componentType":5123,
			"count":1992,
			"type":"SCALAR"
		}
	],
	"bufferViews":[
		{
			"buffer":0,
			"byteLength":22284,
			"byteOffset":0,
			"target":34962
		},
		{
			"buffer":0,
			"byteLength":22284,
			"byteOffset":22284,
			"target":34962
		},
		{
			"buffer":0,
			"byteLength":14856,
			"byteOffset":44568,
			"target":34962
		},
		{
			"buffer":0,
			"byteLength":19464,
			"byteOffset":59424,
			"target":34963
		},
		{
			"buffer":0,
			"byteLength":6684,
			"byteOffset":78888,
			"target":34962
		},
		{
			"buffer":0,
			"byteLength":6684,
			"byteOffset":85572,
			"target":34962
		},
		{
			"buffer":0,
			"byteLength":4456,
			"byteOffset":92256,
			"target":34962
		},
		{
			"buffer":0,
			"byteLength":3804,
			"byteOffset":96712,
			"target":34963
		},
		{
			"buffer":0,
			"byteLength":21900,
			"byteOffset":100516,
			"target":34962
		},
		{
			"buffer":0,
			"byteLength":21900,
			"byteOffset":122416,
			"target":34962
		},
		{
			"buffer":0,
			"byteLength":14600,
			"byteOffset":144316,
			"target":34962
		},
		{
			"buffer":0,
			"byteLength":19284,
			"byteOffset":158916,
			"target":34963
		},
		{
			"buffer":0,
			"byteLength":7032,
			"byteOffset":178200,
			"target":34962
		},
		{
			"buffer":0,
			"byteLength":7032,
			"byteOffset":185232,
			"target":34962
		},
		{
			"buffer":0,
			"byteLength":4688,
			"byteOffset":192264,
			"target":34962
		},
		{
			"buffer":0,
			"byteLength":3984,
			"byteOffset":196952,
			"target":34963
		}
	],
	"samplers":[
		{
			"magFilter":9729,
			"minFilter":9987
		}
	],
	"buffers":[
		{
			"byteLength":200936,
			"uri":"v_glove_brokenfang.bin"
		}
	]
}
