{
	"asset":{
		"generator":"Khronos glTF Blender I/O v4.5.49",
		"version":"2.0"
	},
	"scene":0,
	"scenes":[
		{
			"name":"Scene",
			"nodes":[
				0,
				1
			]
		}
	],
	"nodes":[
		{
			"mesh":0,
			"name":"left"
		},
		{
			"mesh":1,
			"name":"right"
		}
	],
	"materials":[
		{
			"doubleSided":true,
			"name":"Material.019",
			"pbrMetallicRoughness":{
				"baseColorTexture":{
					"index":0
				},
				"metallicFactor":0,
				"roughnessFactor":0.5
			}
		},
		{
			"doubleSided":true,
			"name":"Material.020",
			"pbrMetallicRoughness":{
				"baseColorTexture":{
					"index":1
				},
				"metallicFactor":0,
				"roughnessFactor":0.5
			}
		}
	],
	"meshes":[
		{
			"name":"left.005",
			"primitives":[
				{
					"attributes":{
						"POSITION":0,
						"NORMAL":1,
						"TEXCOORD_0":2
					},
					"indices":3,
					"material":0
				}
			]
		},
		{
			"name":"right.005",
			"primitives":[
				{
					"attributes":{
						"POSITION":4,
						"NORMAL":5,
						"TEXCOORD_0":6
					},
					"indices":7,
					"material":1
				}
			]
		}
	],
	"textures":[
		{
			"sampler":0,
			"source":0
		},
		{
			"sampler":0,
			"source":1
		}
	],
	"images":[
		{
			"mimeType":"image/png",
			"name":"applied_texture_l",
			"uri":"applied_texture_l.png"
		},
		{
			"mimeType":"image/png",
			"name":"applied_texture_r",
			"uri":"applied_texture_r.png"
		}
	],
	"accessors":[
		{
			"bufferView":0,
			"componentType":5126,
			"count":4662,
			"max":[
				1.5574272871017456,
				28.598438262939453,
				4.676283359527588
			],
			"min":[
				-4.294428825378418,
				20.60468101501465,
				-2.694119930267334
			],
			"type":"VEC3"
		},
		{
			"bufferView":1,
			"componentType":5126,
			"count":4662,
			"type":"VEC3"
		},
		{
			"bufferView":2,
			"componentType":5126,
			"count":4662,
			"type":"VEC2"
		},
		{
			"bufferView":3,
			"componentType":5123,
			"count":22776,
			"type":"SCALAR"
		},
		{
			"bufferView":4,
			"componentType":5126,
			"count":4706,
			"max":[
				1.5574547052383423,
				-20.604793548583984,
				4.676301956176758
			],
			"min":[
				-4.294556140899658,
				-28.59914779663086,
				-2.6942458152770996
			],
			"type":"VEC3"
		},
		{
			"bufferView":5,
			"componentType":5126,
			"count":4706,
			"type":"VEC3"
		},
		{
			"bufferView":6,
			"componentType":5126,
			"count":4706,
			"type":"VEC2"
		},
		{
			"bufferView":7,
			"componentType":5123,
			"count":22776,
			"type":"SCALAR"
		}
	],
	"bufferViews":[
		{
			"buffer":0,
			"byteLength":55944,
			"byteOffset":0,
			"target":34962
		},
		{
			"buffer":0,
			"byteLength":55944,
			"byteOffset":55944,
			"target":34962
		},
		{
			"buffer":0,
			"byteLength":37296,
			"byteOffset":111888,
			"target":34962
		},
		{
			"buffer":0,
			"byteLength":45552,
			"byteOffset":149184,
			"target":34963
		},
		{
			"buffer":0,
			"byteLength":56472,
			"byteOffset":194736,
			"target":34962
		},
		{
			"buffer":0,
			"byteLength":56472,
			"byteOffset":251208,
			"target":34962
		},
		{
			"buffer":0,
			"byteLength":37648,
			"byteOffset":307680,
			"target":34962
		},
		{
			"buffer":0,
			"byteLength":45552,
			"byteOffset":345328,
			"target":34963
		}
	],
	"samplers":[
		{
			"magFilter":9729,
			"minFilter":9987
		}
	],
	"buffers":[
		{
			"byteLength":390880,
			"uri":"v_glove_specialist.bin"
		}
	]
}
