{
	"asset":{
		"generator":"Khronos glTF Blender I/O v4.5.49",
		"version":"2.0"
	},
	"scene":0,
	"scenes":[
		{
			"name":"Scene",
			"nodes":[
				0
			]
		}
	],
	"nodes":[
		{
			"mesh":0,
			"name":"model",
			"rotation":[
				-0.49999988079071045,
				-0.49999988079071045,
				-0.5000001788139343,
				0.5000001192092896
			],
			"scale":[
				2.999999761581421,
				2.999999761581421,
				2.999999761581421
			]
		}
	],
	"materials":[
		{
			"doubleSided":true,
			"name":"AppliedTextureMaterial",
			"pbrMetallicRoughness":{
				"baseColorTexture":{
					"index":0
				},
				"metallicFactor":0,
				"roughnessFactor":0.5
			}
		}
	],
	"meshes":[
		{
			"name":"model.022",
			"primitives":[
				{
					"attributes":{
						"POSITION":0,
						"NORMAL":1,
						"TEXCOORD_0":2,
						"TEXCOORD_1":3
					},
					"indices":4,
					"material":0
				}
			]
		}
	],
	"textures":[
		{
			"sampler":0,
			"source":0
		}
	],
	"images":[
		{
			"mimeType":"image/png",
			"name":"applied_texture",
			"uri":"applied_texture.png"
		}
	],
	"accessors":[
		{
			"bufferView":0,
			"componentType":5126,
			"count":19417,
			"max":[
				5.129634857177734,
				0.6894024610519409,
				3.313445806503296
			],
			"min":[
				-5.129635334014893,
				-0.6894025206565857,
				-3.313445568084717
			],
			"type":"VEC3"
		},
		{
			"bufferView":1,
			"componentType":5126,
			"count":19417,
			"type":"VEC3"
		},
		{
			"bufferView":2,
			"componentType":5126,
			"count":19417,
			"type":"VEC2"
		},
		{
			"bufferView":3,
			"componentType":5126,
			"count":19417,
			"type":"VEC2"
		},
		{
			"bufferView":4,
			"componentType":5123,
			"count":67203,
			"type":"SCALAR"
		}
	],
	"bufferViews":[
		{
			"buffer":0,
			"byteLength":233004,
			"byteOffset":0,
			"target":34962
		},
		{
			"buffer":0,
			"byteLength":233004,
			"byteOffset":233004,
			"target":34962
		},
		{
			"buffer":0,
			"byteLength":155336,
			"byteOffset":466008,
			"target":34962
		},
		{
			"buffer":0,
			"byteLength":155336,
			"byteOffset":621344,
			"target":34962
		},
		{
			"buffer":0,
			"byteLength":134406,
			"byteOffset":776680,
			"target":34963
		}
	],
	"samplers":[
		{
			"magFilter":9729,
			"minFilter":9987
		}
	],
	"buffers":[
		{
			"byteLength":911088,
			"uri":"weapon_pist_cz75a.bin"
		}
	]
}
