{
	"asset":{
		"generator":"Khronos glTF Blender I/O v4.5.49",
		"version":"2.0"
	},
	"scene":0,
	"scenes":[
		{
			"name":"Scene",
			"nodes":[
				0
			]
		}
	],
	"nodes":[
		{
			"mesh":0,
			"name":"model",
			"rotation":[
				-0.4999999403953552,
				-0.4999999403953552,
				-0.5000001788139343,
				0.5000000596046448
			],
			"scale":[
				3.000000476837158,
				3.000000476837158,
				3.000000476837158
			]
		}
	],
	"materials":[
		{
			"doubleSided":true,
			"name":"AppliedTextureMaterial",
			"pbrMetallicRoughness":{
				"baseColorTexture":{
					"index":0
				},
				"metallicFactor":0,
				"roughnessFactor":0.5
			}
		}
	],
	"meshes":[
		{
			"name":"model.054",
			"primitives":[
				{
					"attributes":{
						"POSITION":0,
						"NORMAL":1,
						"TEXCOORD_0":2,
						"TEXCOORD_1":3
					},
					"indices":4,
					"material":0
				}
			]
		}
	],
	"textures":[
		{
			"sampler":0,
			"source":0
		}
	],
	"images":[
		{
			"mimeType":"image/png",
			"name":"applied_texture",
			"uri":"applied_texture.png"
		}
	],
	"accessors":[
		{
			"bufferView":0,
			"componentType":5126,
			"count":42481,
			"max":[
				25.572303771972656,
				2.5088391304016113,
				6.251151084899902
			],
			"min":[
				-25.572303771972656,
				-2.5088391304016113,
				-6.251151084899902
			],
			"type":"VEC3"
		},
		{
			"bufferView":1,
			"componentType":5126,
			"count":42481,
			"type":"VEC3"
		},
		{
			"bufferView":2,
			"componentType":5126,
			"count":42481,
			"type":"VEC2"
		},
		{
			"bufferView":3,
			"componentType":5126,
			"count":42481,
			"type":"VEC2"
		},
		{
			"bufferView":4,
			"componentType":5123,
			"count":147063,
			"type":"SCALAR"
		}
	],
	"bufferViews":[
		{
			"buffer":0,
			"byteLength":509772,
			"byteOffset":0,
			"target":34962
		},
		{
			"buffer":0,
			"byteLength":509772,
			"byteOffset":509772,
			"target":34962
		},
		{
			"buffer":0,
			"byteLength":339848,
			"byteOffset":1019544,
			"target":34962
		},
		{
			"buffer":0,
			"byteLength":339848,
			"byteOffset":1359392,
			"target":34962
		},
		{
			"buffer":0,
			"byteLength":294126,
			"byteOffset":1699240,
			"target":34963
		}
	],
	"samplers":[
		{
			"magFilter":9729,
			"minFilter":9987
		}
	],
	"buffers":[
		{
			"byteLength":1993368,
			"uri":"weapon_snip_ssg08.bin"
		}
	]
}
