{
	"asset":{
		"generator":"Khronos glTF Blender I/O v4.5.49",
		"version":"2.0"
	},
	"scene":0,
	"scenes":[
		{
			"name":"Scene",
			"nodes":[
				0
			]
		}
	],
	"nodes":[
		{
			"mesh":0,
			"name":"model",
			"rotation":[
				-0.4999999403953552,
				-0.4999999403953552,
				-0.5000001788139343,
				0.5000000596046448
			],
			"scale":[
				3.000000476837158,
				3.000000476837158,
				3.000000476837158
			]
		}
	],
	"materials":[
		{
			"doubleSided":true,
			"name":"AppliedTextureMaterial",
			"pbrMetallicRoughness":{
				"baseColorTexture":{
					"index":0
				},
				"metallicFactor":0,
				"roughnessFactor":0.5
			}
		}
	],
	"meshes":[
		{
			"name":"model.050",
			"primitives":[
				{
					"attributes":{
						"POSITION":0,
						"NORMAL":1,
						"TEXCOORD_0":2,
						"TEXCOORD_1":3
					},
					"indices":4,
					"material":0
				}
			]
		}
	],
	"textures":[
		{
			"sampler":0,
			"source":0
		}
	],
	"images":[
		{
			"mimeType":"image/png",
			"name":"applied_texture",
			"uri":"applied_texture.png"
		}
	],
	"accessors":[
		{
			"bufferView":0,
			"componentType":5126,
			"count":27965,
			"max":[
				14.333044052124023,
				1.3050920963287354,
				6.772660255432129
			],
			"min":[
				-14.333044052124023,
				-1.3050919771194458,
				-6.772660255432129
			],
			"type":"VEC3"
		},
		{
			"bufferView":1,
			"componentType":5126,
			"count":27965,
			"type":"VEC3"
		},
		{
			"bufferView":2,
			"componentType":5126,
			"count":27965,
			"type":"VEC2"
		},
		{
			"bufferView":3,
			"componentType":5126,
			"count":27965,
			"type":"VEC2"
		},
		{
			"bufferView":4,
			"componentType":5123,
			"count":98379,
			"type":"SCALAR"
		}
	],
	"bufferViews":[
		{
			"buffer":0,
			"byteLength":335580,
			"byteOffset":0,
			"target":34962
		},
		{
			"buffer":0,
			"byteLength":335580,
			"byteOffset":335580,
			"target":34962
		},
		{
			"buffer":0,
			"byteLength":223720,
			"byteOffset":671160,
			"target":34962
		},
		{
			"buffer":0,
			"byteLength":223720,
			"byteOffset":894880,
			"target":34962
		},
		{
			"buffer":0,
			"byteLength":196758,
			"byteOffset":1118600,
			"target":34963
		}
	],
	"samplers":[
		{
			"magFilter":9729,
			"minFilter":9987
		}
	],
	"buffers":[
		{
			"byteLength":1315360,
			"uri":"weapon_smg_ump45.bin"
		}
	]
}
