{
	"asset":{
		"generator":"Khronos glTF Blender I/O v4.5.49",
		"version":"2.0"
	},
	"scene":0,
	"scenes":[
		{
			"name":"Scene",
			"nodes":[
				0
			]
		}
	],
	"nodes":[
		{
			"mesh":0,
			"name":"model",
			"rotation":[
				-0.4999999403953552,
				-0.4999999403953552,
				-0.5000001788139343,
				0.5000000596046448
			],
			"scale":[
				3.000000476837158,
				3.000000476837158,
				3.000000476837158
			]
		}
	],
	"materials":[
		{
			"doubleSided":true,
			"name":"AppliedTextureMaterial",
			"pbrMetallicRoughness":{
				"baseColorTexture":{
					"index":0
				},
				"metallicFactor":0,
				"roughnessFactor":0.5
			}
		}
	],
	"meshes":[
		{
			"name":"model.024",
			"primitives":[
				{
					"attributes":{
						"POSITION":0,
						"NORMAL":1,
						"TEXCOORD_0":2,
						"TEXCOORD_1":3
					},
					"indices":4,
					"material":0
				}
			]
		}
	],
	"textures":[
		{
			"sampler":0,
			"source":0
		}
	],
	"images":[
		{
			"mimeType":"image/png",
			"name":"applied_texture",
			"uri":"applied_texture.png"
		}
	],
	"accessors":[
		{
			"bufferView":0,
			"componentType":5126,
			"count":36589,
			"max":[
				5.174993515014648,
				10.830570220947266,
				3.2450108528137207
			],
			"min":[
				-5.174994468688965,
				-10.830570220947266,
				-3.2450108528137207
			],
			"type":"VEC3"
		},
		{
			"bufferView":1,
			"componentType":5126,
			"count":36589,
			"type":"VEC3"
		},
		{
			"bufferView":2,
			"componentType":5126,
			"count":36589,
			"type":"VEC2"
		},
		{
			"bufferView":3,
			"componentType":5126,
			"count":36589,
			"type":"VEC2"
		},
		{
			"bufferView":4,
			"componentType":5123,
			"count":125898,
			"type":"SCALAR"
		}
	],
	"bufferViews":[
		{
			"buffer":0,
			"byteLength":439068,
			"byteOffset":0,
			"target":34962
		},
		{
			"buffer":0,
			"byteLength":439068,
			"byteOffset":439068,
			"target":34962
		},
		{
			"buffer":0,
			"byteLength":292712,
			"byteOffset":878136,
			"target":34962
		},
		{
			"buffer":0,
			"byteLength":292712,
			"byteOffset":1170848,
			"target":34962
		},
		{
			"buffer":0,
			"byteLength":251796,
			"byteOffset":1463560,
			"target":34963
		}
	],
	"samplers":[
		{
			"magFilter":9729,
			"minFilter":9987
		}
	],
	"buffers":[
		{
			"byteLength":1715356,
			"uri":"weapon_pist_elite.bin"
		}
	]
}
