{
	"asset":{
		"generator":"Khronos glTF Blender I/O v4.5.49",
		"version":"2.0"
	},
	"scene":0,
	"scenes":[
		{
			"name":"Scene",
			"nodes":[
				0
			]
		}
	],
	"nodes":[
		{
			"mesh":0,
			"name":"model",
			"rotation":[
				-0.4999999403953552,
				-0.4999999403953552,
				-0.5000001788139343,
				0.5000000596046448
			],
			"scale":[
				3.000000476837158,
				3.000000476837158,
				3.000000476837158
			]
		}
	],
	"materials":[
		{
			"doubleSided":true,
			"name":"AppliedTextureMaterial",
			"pbrMetallicRoughness":{
				"baseColorTexture":{
					"index":0
				},
				"metallicFactor":0,
				"roughnessFactor":0.5
			}
		}
	],
	"meshes":[
		{
			"name":"model.037",
			"primitives":[
				{
					"attributes":{
						"POSITION":0,
						"NORMAL":1,
						"TEXCOORD_0":2,
						"TEXCOORD_1":3
					},
					"indices":4,
					"material":0
				}
			]
		}
	],
	"textures":[
		{
			"sampler":0,
			"source":0
		}
	],
	"images":[
		{
			"mimeType":"image/png",
			"name":"applied_texture",
			"uri":"applied_texture.png"
		}
	],
	"accessors":[
		{
			"bufferView":0,
			"componentType":5126,
			"count":40297,
			"max":[
				23.166391372680664,
				1.5351057052612305,
				5.901555061340332
			],
			"min":[
				-23.166393280029297,
				-1.5351061820983887,
				-5.901555061340332
			],
			"type":"VEC3"
		},
		{
			"bufferView":1,
			"componentType":5126,
			"count":40297,
			"type":"VEC3"
		},
		{
			"bufferView":2,
			"componentType":5126,
			"count":40297,
			"type":"VEC2"
		},
		{
			"bufferView":3,
			"componentType":5126,
			"count":40297,
			"type":"VEC2"
		},
		{
			"bufferView":4,
			"componentType":5123,
			"count":136128,
			"type":"SCALAR"
		}
	],
	"bufferViews":[
		{
			"buffer":0,
			"byteLength":483564,
			"byteOffset":0,
			"target":34962
		},
		{
			"buffer":0,
			"byteLength":483564,
			"byteOffset":483564,
			"target":34962
		},
		{
			"buffer":0,
			"byteLength":322376,
			"byteOffset":967128,
			"target":34962
		},
		{
			"buffer":0,
			"byteLength":322376,
			"byteOffset":1289504,
			"target":34962
		},
		{
			"buffer":0,
			"byteLength":272256,
			"byteOffset":1611880,
			"target":34963
		}
	],
	"samplers":[
		{
			"magFilter":9729,
			"minFilter":9987
		}
	],
	"buffers":[
		{
			"byteLength":1884136,
			"uri":"weapon_rif_m4a1_silencer.bin"
		}
	]
}
