{
	"asset":{
		"generator":"Khronos glTF Blender I/O v4.5.49",
		"version":"2.0"
	},
	"scene":0,
	"scenes":[
		{
			"name":"Scene",
			"nodes":[
				0
			]
		}
	],
	"nodes":[
		{
			"mesh":0,
			"name":"model",
			"rotation":[
				-0.4999999403953552,
				-0.4999999403953552,
				-0.5000001788139343,
				0.5000000596046448
			],
			"scale":[
				3.000000476837158,
				3.000000476837158,
				3.000000476837158
			]
		}
	],
	"materials":[
		{
			"doubleSided":true,
			"name":"AppliedTextureMaterial",
			"pbrMetallicRoughness":{
				"baseColorTexture":{
					"index":0
				},
				"metallicFactor":0,
				"roughnessFactor":0.5
			}
		}
	],
	"meshes":[
		{
			"name":"model.043",
			"primitives":[
				{
					"attributes":{
						"POSITION":0,
						"NORMAL":1,
						"TEXCOORD_0":2,
						"TEXCOORD_1":3
					},
					"indices":4,
					"material":0
				}
			]
		}
	],
	"textures":[
		{
			"sampler":0,
			"source":0
		}
	],
	"images":[
		{
			"mimeType":"image/png",
			"name":"applied_texture",
			"uri":"applied_texture.png"
		}
	],
	"accessors":[
		{
			"bufferView":0,
			"componentType":5126,
			"count":22452,
			"max":[
				17.670066833496094,
				1.1147526502609253,
				3.444201946258545
			],
			"min":[
				-17.670066833496094,
				-1.1147526502609253,
				-3.444201946258545
			],
			"type":"VEC3"
		},
		{
			"bufferView":1,
			"componentType":5126,
			"count":22452,
			"type":"VEC3"
		},
		{
			"bufferView":2,
			"componentType":5126,
			"count":22452,
			"type":"VEC2"
		},
		{
			"bufferView":3,
			"componentType":5126,
			"count":22452,
			"type":"VEC2"
		},
		{
			"bufferView":4,
			"componentType":5123,
			"count":79050,
			"type":"SCALAR"
		}
	],
	"bufferViews":[
		{
			"buffer":0,
			"byteLength":269424,
			"byteOffset":0,
			"target":34962
		},
		{
			"buffer":0,
			"byteLength":269424,
			"byteOffset":269424,
			"target":34962
		},
		{
			"buffer":0,
			"byteLength":179616,
			"byteOffset":538848,
			"target":34962
		},
		{
			"buffer":0,
			"byteLength":179616,
			"byteOffset":718464,
			"target":34962
		},
		{
			"buffer":0,
			"byteLength":158100,
			"byteOffset":898080,
			"target":34963
		}
	],
	"samplers":[
		{
			"magFilter":9729,
			"minFilter":9987
		}
	],
	"buffers":[
		{
			"byteLength":1056180,
			"uri":"weapon_shot_xm1014.bin"
		}
	]
}
