{
	"asset":{
		"generator":"Khronos glTF Blender I/O v4.5.49",
		"version":"2.0"
	},
	"scene":0,
	"scenes":[
		{
			"name":"Scene",
			"nodes":[
				0
			]
		}
	],
	"nodes":[
		{
			"mesh":0,
			"name":"model",
			"rotation":[
				-0.49999988079071045,
				-0.49999988079071045,
				-0.5000001192092896,
				0.5000002384185791
			],
			"scale":[
				2.999999761581421,
				2.999999761581421,
				2.999999761581421
			]
		}
	],
	"materials":[
		{
			"doubleSided":true,
			"name":"AppliedTextureMaterial",
			"pbrMetallicRoughness":{
				"baseColorTexture":{
					"index":0
				},
				"metallicFactor":0,
				"roughnessFactor":0.5
			}
		}
	],
	"meshes":[
		{
			"name":"model.052",
			"primitives":[
				{
					"attributes":{
						"POSITION":0,
						"NORMAL":1,
						"TEXCOORD_0":2,
						"TEXCOORD_1":3
					},
					"indices":4,
					"material":0
				}
			]
		}
	],
	"textures":[
		{
			"sampler":0,
			"source":0
		}
	],
	"images":[
		{
			"mimeType":"image/png",
			"name":"applied_texture",
			"uri":"applied_texture.png"
		}
	],
	"accessors":[
		{
			"bufferView":0,
			"componentType":5126,
			"count":41027,
			"max":[
				21.41915512084961,
				1.203869104385376,
				5.550433158874512
			],
			"min":[
				-21.419153213500977,
				-1.203869104385376,
				-5.550433158874512
			],
			"type":"VEC3"
		},
		{
			"bufferView":1,
			"componentType":5126,
			"count":41027,
			"type":"VEC3"
		},
		{
			"bufferView":2,
			"componentType":5126,
			"count":41027,
			"type":"VEC2"
		},
		{
			"bufferView":3,
			"componentType":5126,
			"count":41027,
			"type":"VEC2"
		},
		{
			"bufferView":4,
			"componentType":5123,
			"count":142332,
			"type":"SCALAR"
		}
	],
	"bufferViews":[
		{
			"buffer":0,
			"byteLength":492324,
			"byteOffset":0,
			"target":34962
		},
		{
			"buffer":0,
			"byteLength":492324,
			"byteOffset":492324,
			"target":34962
		},
		{
			"buffer":0,
			"byteLength":328216,
			"byteOffset":984648,
			"target":34962
		},
		{
			"buffer":0,
			"byteLength":328216,
			"byteOffset":1312864,
			"target":34962
		},
		{
			"buffer":0,
			"byteLength":284664,
			"byteOffset":1641080,
			"target":34963
		}
	],
	"samplers":[
		{
			"magFilter":9729,
			"minFilter":9987
		}
	],
	"buffers":[
		{
			"byteLength":1925744,
			"uri":"weapon_snip_g3sg1.bin"
		}
	]
}
