{
	"asset":{
		"generator":"Khronos glTF Blender I/O v4.5.49",
		"version":"2.0"
	},
	"scene":0,
	"scenes":[
		{
			"name":"Scene",
			"nodes":[
				0
			]
		}
	],
	"nodes":[
		{
			"mesh":0,
			"name":"model",
			"rotation":[
				-0.4999999403953552,
				-0.4999999403953552,
				-0.5000001788139343,
				0.5000000596046448
			],
			"scale":[
				3.000000476837158,
				3.000000476837158,
				3.000000476837158
			]
		}
	],
	"materials":[
		{
			"doubleSided":true,
			"name":"AppliedTextureMaterial",
			"pbrMetallicRoughness":{
				"baseColorTexture":{
					"index":0
				},
				"metallicFactor":0,
				"roughnessFactor":0.5
			}
		}
	],
	"meshes":[
		{
			"name":"model.027",
			"primitives":[
				{
					"attributes":{
						"POSITION":0,
						"NORMAL":1,
						"TEXCOORD_0":2,
						"TEXCOORD_1":3
					},
					"indices":4,
					"material":0
				}
			]
		}
	],
	"textures":[
		{
			"sampler":0,
			"source":0
		}
	],
	"images":[
		{
			"mimeType":"image/png",
			"name":"applied_texture",
			"uri":"applied_texture.png"
		}
	],
	"accessors":[
		{
			"bufferView":0,
			"componentType":5126,
			"count":13759,
			"max":[
				3.6115894317626953,
				0.7335246801376343,
				2.796955108642578
			],
			"min":[
				-3.6115899085998535,
				-0.7335246801376343,
				-2.796955108642578
			],
			"type":"VEC3"
		},
		{
			"bufferView":1,
			"componentType":5126,
			"count":13759,
			"type":"VEC3"
		},
		{
			"bufferView":2,
			"componentType":5126,
			"count":13759,
			"type":"VEC2"
		},
		{
			"bufferView":3,
			"componentType":5126,
			"count":13759,
			"type":"VEC2"
		},
		{
			"bufferView":4,
			"componentType":5123,
			"count":45417,
			"type":"SCALAR"
		}
	],
	"bufferViews":[
		{
			"buffer":0,
			"byteLength":165108,
			"byteOffset":0,
			"target":34962
		},
		{
			"buffer":0,
			"byteLength":165108,
			"byteOffset":165108,
			"target":34962
		},
		{
			"buffer":0,
			"byteLength":110072,
			"byteOffset":330216,
			"target":34962
		},
		{
			"buffer":0,
			"byteLength":110072,
			"byteOffset":440288,
			"target":34962
		},
		{
			"buffer":0,
			"byteLength":90834,
			"byteOffset":550360,
			"target":34963
		}
	],
	"samplers":[
		{
			"magFilter":9729,
			"minFilter":9987
		}
	],
	"buffers":[
		{
			"byteLength":641196,
			"uri":"weapon_pist_hkp2000.bin"
		}
	]
}
