{
	"asset":{
		"generator":"Khronos glTF Blender I/O v4.5.49",
		"version":"2.0"
	},
	"scene":0,
	"scenes":[
		{
			"name":"Scene",
			"nodes":[
				0
			]
		}
	],
	"nodes":[
		{
			"mesh":0,
			"name":"model",
			"rotation":[
				-0.4999999403953552,
				-0.4999999403953552,
				-0.5000001788139343,
				0.5000000596046448
			],
			"scale":[
				3.000000476837158,
				3.000000476837158,
				3.000000476837158
			]
		}
	],
	"materials":[
		{
			"doubleSided":true,
			"name":"AppliedTextureMaterial",
			"pbrMetallicRoughness":{
				"baseColorTexture":{
					"index":0
				},
				"metallicFactor":0,
				"roughnessFactor":0.5
			}
		}
	],
	"meshes":[
		{
			"name":"model.040",
			"primitives":[
				{
					"attributes":{
						"POSITION":0,
						"NORMAL":1,
						"TEXCOORD_0":2,
						"TEXCOORD_1":3
					},
					"indices":4,
					"material":0
				}
			]
		}
	],
	"textures":[
		{
			"sampler":0,
			"source":0
		}
	],
	"images":[
		{
			"mimeType":"image/png",
			"name":"applied_texture",
			"uri":"applied_texture.png"
		}
	],
	"accessors":[
		{
			"bufferView":0,
			"componentType":5126,
			"count":17845,
			"max":[
				12.759498596191406,
				1.3176896572113037,
				5.094354152679443
			],
			"min":[
				-12.75949764251709,
				-1.3176898956298828,
				-5.094354152679443
			],
			"type":"VEC3"
		},
		{
			"bufferView":1,
			"componentType":5126,
			"count":17845,
			"type":"VEC3"
		},
		{
			"bufferView":2,
			"componentType":5126,
			"count":17845,
			"type":"VEC2"
		},
		{
			"bufferView":3,
			"componentType":5126,
			"count":17845,
			"type":"VEC2"
		},
		{
			"bufferView":4,
			"componentType":5123,
			"count":59904,
			"type":"SCALAR"
		}
	],
	"bufferViews":[
		{
			"buffer":0,
			"byteLength":214140,
			"byteOffset":0,
			"target":34962
		},
		{
			"buffer":0,
			"byteLength":214140,
			"byteOffset":214140,
			"target":34962
		},
		{
			"buffer":0,
			"byteLength":142760,
			"byteOffset":428280,
			"target":34962
		},
		{
			"buffer":0,
			"byteLength":142760,
			"byteOffset":571040,
			"target":34962
		},
		{
			"buffer":0,
			"byteLength":119808,
			"byteOffset":713800,
			"target":34963
		}
	],
	"samplers":[
		{
			"magFilter":9729,
			"minFilter":9987
		}
	],
	"buffers":[
		{
			"byteLength":833608,
			"uri":"weapon_shot_mag7.bin"
		}
	]
}
