{
	"asset":{
		"generator":"Khronos glTF Blender I/O v4.5.49",
		"version":"2.0"
	},
	"scene":0,
	"scenes":[
		{
			"name":"Scene",
			"nodes":[
				0
			]
		}
	],
	"nodes":[
		{
			"mesh":0,
			"name":"model",
			"rotation":[
				-0.4999999403953552,
				-0.4999999403953552,
				-0.5000001788139343,
				0.5000000596046448
			],
			"scale":[
				3.000000476837158,
				3.000000476837158,
				3.000000476837158
			]
		}
	],
	"materials":[
		{
			"doubleSided":true,
			"name":"AppliedTextureMaterial",
			"pbrMetallicRoughness":{
				"baseColorTexture":{
					"index":0
				},
				"metallicFactor":0,
				"roughnessFactor":0.5
			}
		}
	],
	"meshes":[
		{
			"name":"model.039",
			"primitives":[
				{
					"attributes":{
						"POSITION":0,
						"NORMAL":1,
						"TEXCOORD_0":2,
						"TEXCOORD_1":3
					},
					"indices":4,
					"material":0
				}
			]
		}
	],
	"textures":[
		{
			"sampler":0,
			"source":0
		}
	],
	"images":[
		{
			"mimeType":"image/png",
			"name":"applied_texture",
			"uri":"applied_texture.png"
		}
	],
	"accessors":[
		{
			"bufferView":0,
			"componentType":5126,
			"count":46570,
			"max":[
				17.536712646484375,
				1.494051218032837,
				6.212588310241699
			],
			"min":[
				-17.536712646484375,
				-1.494051218032837,
				-6.212588310241699
			],
			"type":"VEC3"
		},
		{
			"bufferView":1,
			"componentType":5126,
			"count":46570,
			"type":"VEC3"
		},
		{
			"bufferView":2,
			"componentType":5126,
			"count":46570,
			"type":"VEC2"
		},
		{
			"bufferView":3,
			"componentType":5126,
			"count":46570,
			"type":"VEC2"
		},
		{
			"bufferView":4,
			"componentType":5123,
			"count":156663,
			"type":"SCALAR"
		}
	],
	"bufferViews":[
		{
			"buffer":0,
			"byteLength":558840,
			"byteOffset":0,
			"target":34962
		},
		{
			"buffer":0,
			"byteLength":558840,
			"byteOffset":558840,
			"target":34962
		},
		{
			"buffer":0,
			"byteLength":372560,
			"byteOffset":1117680,
			"target":34962
		},
		{
			"buffer":0,
			"byteLength":372560,
			"byteOffset":1490240,
			"target":34962
		},
		{
			"buffer":0,
			"byteLength":313326,
			"byteOffset":1862800,
			"target":34963
		}
	],
	"samplers":[
		{
			"magFilter":9729,
			"minFilter":9987
		}
	],
	"buffers":[
		{
			"byteLength":2176128,
			"uri":"weapon_rif_sg556.bin"
		}
	]
}
