{
	"asset":{
		"generator":"Khronos glTF Blender I/O v4.5.49",
		"version":"2.0"
	},
	"scene":0,
	"scenes":[
		{
			"name":"Scene",
			"nodes":[
				0
			]
		}
	],
	"nodes":[
		{
			"mesh":0,
			"name":"model",
			"rotation":[
				-0.49999988079071045,
				-0.49999988079071045,
				-0.5000001192092896,
				0.5000002384185791
			],
			"scale":[
				2.999999761581421,
				2.999999761581421,
				2.999999761581421
			]
		}
	],
	"materials":[
		{
			"doubleSided":true,
			"name":"AppliedTextureMaterial",
			"pbrMetallicRoughness":{
				"baseColorTexture":{
					"index":0
				},
				"metallicFactor":0,
				"roughnessFactor":0.5
			}
		}
	],
	"meshes":[
		{
			"name":"model.051",
			"primitives":[
				{
					"attributes":{
						"POSITION":0,
						"NORMAL":1,
						"TEXCOORD_0":2,
						"TEXCOORD_1":3
					},
					"indices":4,
					"material":0
				}
			]
		}
	],
	"textures":[
		{
			"sampler":0,
			"source":0
		}
	],
	"images":[
		{
			"mimeType":"image/png",
			"name":"applied_texture",
			"uri":"applied_texture.png"
		}
	],
	"accessors":[
		{
			"bufferView":0,
			"componentType":5126,
			"count":38641,
			"max":[
				26.828174591064453,
				2.225740671157837,
				5.248213768005371
			],
			"min":[
				-26.828174591064453,
				-2.225740671157837,
				-5.248213291168213
			],
			"type":"VEC3"
		},
		{
			"bufferView":1,
			"componentType":5126,
			"count":38641,
			"type":"VEC3"
		},
		{
			"bufferView":2,
			"componentType":5126,
			"count":38641,
			"type":"VEC2"
		},
		{
			"bufferView":3,
			"componentType":5126,
			"count":38641,
			"type":"VEC2"
		},
		{
			"bufferView":4,
			"componentType":5123,
			"count":118551,
			"type":"SCALAR"
		}
	],
	"bufferViews":[
		{
			"buffer":0,
			"byteLength":463692,
			"byteOffset":0,
			"target":34962
		},
		{
			"buffer":0,
			"byteLength":463692,
			"byteOffset":463692,
			"target":34962
		},
		{
			"buffer":0,
			"byteLength":309128,
			"byteOffset":927384,
			"target":34962
		},
		{
			"buffer":0,
			"byteLength":309128,
			"byteOffset":1236512,
			"target":34962
		},
		{
			"buffer":0,
			"byteLength":237102,
			"byteOffset":1545640,
			"target":34963
		}
	],
	"samplers":[
		{
			"magFilter":9729,
			"minFilter":9987
		}
	],
	"buffers":[
		{
			"byteLength":1782744,
			"uri":"weapon_snip_awp.bin"
		}
	]
}
