{
	"asset":{
		"generator":"Khronos glTF Blender I/O v4.5.49",
		"version":"2.0"
	},
	"scene":0,
	"scenes":[
		{
			"name":"Scene",
			"nodes":[
				0
			]
		}
	],
	"nodes":[
		{
			"mesh":0,
			"name":"model",
			"rotation":[
				-0.49999988079071045,
				-0.49999988079071045,
				-0.5000001192092896,
				0.5000002384185791
			],
			"scale":[
				2.999999761581421,
				2.999999761581421,
				2.999999761581421
			]
		}
	],
	"materials":[
		{
			"doubleSided":true,
			"name":"AppliedTextureMaterial",
			"pbrMetallicRoughness":{
				"baseColorTexture":{
					"index":0
				},
				"metallicFactor":0,
				"roughnessFactor":0.5
			}
		}
	],
	"meshes":[
		{
			"name":"model.028",
			"primitives":[
				{
					"attributes":{
						"POSITION":0,
						"NORMAL":1,
						"TEXCOORD_0":2,
						"TEXCOORD_1":3
					},
					"indices":4,
					"material":0
				}
			]
		}
	],
	"textures":[
		{
			"sampler":0,
			"source":0
		}
	],
	"images":[
		{
			"mimeType":"image/png",
			"name":"applied_texture",
			"uri":"applied_texture.png"
		}
	],
	"accessors":[
		{
			"bufferView":0,
			"componentType":5126,
			"count":14647,
			"max":[
				3.9835128784179688,
				0.7017207145690918,
				2.7510485649108887
			],
			"min":[
				-3.9835124015808105,
				-0.701720654964447,
				-2.7510483264923096
			],
			"type":"VEC3"
		},
		{
			"bufferView":1,
			"componentType":5126,
			"count":14647,
			"type":"VEC3"
		},
		{
			"bufferView":2,
			"componentType":5126,
			"count":14647,
			"type":"VEC2"
		},
		{
			"bufferView":3,
			"componentType":5126,
			"count":14647,
			"type":"VEC2"
		},
		{
			"bufferView":4,
			"componentType":5123,
			"count":47229,
			"type":"SCALAR"
		}
	],
	"bufferViews":[
		{
			"buffer":0,
			"byteLength":175764,
			"byteOffset":0,
			"target":34962
		},
		{
			"buffer":0,
			"byteLength":175764,
			"byteOffset":175764,
			"target":34962
		},
		{
			"buffer":0,
			"byteLength":117176,
			"byteOffset":351528,
			"target":34962
		},
		{
			"buffer":0,
			"byteLength":117176,
			"byteOffset":468704,
			"target":34962
		},
		{
			"buffer":0,
			"byteLength":94458,
			"byteOffset":585880,
			"target":34963
		}
	],
	"samplers":[
		{
			"magFilter":9729,
			"minFilter":9987
		}
	],
	"buffers":[
		{
			"byteLength":680340,
			"uri":"weapon_pist_p250.bin"
		}
	]
}
