{
	"asset":{
		"generator":"Khronos glTF Blender I/O v4.5.49",
		"version":"2.0"
	},
	"scene":0,
	"scenes":[
		{
			"name":"Scene",
			"nodes":[
				0
			]
		}
	],
	"nodes":[
		{
			"mesh":0,
			"name":"model",
			"rotation":[
				-0.4999997615814209,
				-0.4999997615814209,
				-0.5000002384185791,
				0.5000003576278687
			],
			"scale":[
				2.999999761581421,
				2.999999761581421,
				2.999999761581421
			]
		}
	],
	"materials":[
		{
			"doubleSided":true,
			"name":"AppliedTextureMaterial",
			"pbrMetallicRoughness":{
				"baseColorTexture":{
					"index":0
				},
				"metallicFactor":0,
				"roughnessFactor":0.5
			}
		}
	],
	"meshes":[
		{
			"name":"model.032",
			"primitives":[
				{
					"attributes":{
						"POSITION":0,
						"NORMAL":1,
						"TEXCOORD_0":2,
						"TEXCOORD_1":3
					},
					"indices":4,
					"material":0
				}
			]
		}
	],
	"textures":[
		{
			"sampler":0,
			"source":0
		}
	],
	"images":[
		{
			"mimeType":"image/png",
			"name":"applied_texture",
			"uri":"applied_texture.png"
		}
	],
	"accessors":[
		{
			"bufferView":0,
			"componentType":5126,
			"count":15986,
			"max":[
				8.4163818359375,
				0.9058610796928406,
				3.394967794418335
			],
			"min":[
				-8.4163818359375,
				-0.9058610796928406,
				-3.394968032836914
			],
			"type":"VEC3"
		},
		{
			"bufferView":1,
			"componentType":5126,
			"count":15986,
			"type":"VEC3"
		},
		{
			"bufferView":2,
			"componentType":5126,
			"count":15986,
			"type":"VEC2"
		},
		{
			"bufferView":3,
			"componentType":5126,
			"count":15986,
			"type":"VEC2"
		},
		{
			"bufferView":4,
			"componentType":5123,
			"count":56754,
			"type":"SCALAR"
		}
	],
	"bufferViews":[
		{
			"buffer":0,
			"byteLength":191832,
			"byteOffset":0,
			"target":34962
		},
		{
			"buffer":0,
			"byteLength":191832,
			"byteOffset":191832,
			"target":34962
		},
		{
			"buffer":0,
			"byteLength":127888,
			"byteOffset":383664,
			"target":34962
		},
		{
			"buffer":0,
			"byteLength":127888,
			"byteOffset":511552,
			"target":34962
		},
		{
			"buffer":0,
			"byteLength":113508,
			"byteOffset":639440,
			"target":34963
		}
	],
	"samplers":[
		{
			"magFilter":9729,
			"minFilter":9987
		}
	],
	"buffers":[
		{
			"byteLength":752948,
			"uri":"weapon_pist_usp_silencer.bin"
		}
	]
}
