{
	"asset":{
		"generator":"Khronos glTF Blender I/O v4.5.49",
		"version":"2.0"
	},
	"scene":0,
	"scenes":[
		{
			"name":"Scene",
			"nodes":[
				0
			]
		}
	],
	"nodes":[
		{
			"mesh":0,
			"name":"model",
			"rotation":[
				-0.49999988079071045,
				-0.49999988079071045,
				-0.5000001192092896,
				0.5000002384185791
			],
			"scale":[
				2.999999761581421,
				2.999999761581421,
				2.999999761581421
			]
		}
	],
	"materials":[
		{
			"doubleSided":true,
			"name":"AppliedTextureMaterial",
			"pbrMetallicRoughness":{
				"baseColorTexture":{
					"index":0
				},
				"metallicFactor":0,
				"roughnessFactor":0.5
			}
		}
	],
	"meshes":[
		{
			"name":"model.031",
			"primitives":[
				{
					"attributes":{
						"POSITION":0,
						"NORMAL":1,
						"TEXCOORD_0":2,
						"TEXCOORD_1":3
					},
					"indices":4,
					"material":0
				}
			]
		}
	],
	"textures":[
		{
			"sampler":0,
			"source":0
		}
	],
	"images":[
		{
			"mimeType":"image/png",
			"name":"applied_texture",
			"uri":"applied_texture.png"
		}
	],
	"accessors":[
		{
			"bufferView":0,
			"componentType":5126,
			"count":17195,
			"max":[
				6.680375099182129,
				1.1935594081878662,
				5.048170566558838
			],
			"min":[
				-6.680375099182129,
				-1.1935594081878662,
				-5.048170566558838
			],
			"type":"VEC3"
		},
		{
			"bufferView":1,
			"componentType":5126,
			"count":17195,
			"type":"VEC3"
		},
		{
			"bufferView":2,
			"componentType":5126,
			"count":17195,
			"type":"VEC2"
		},
		{
			"bufferView":3,
			"componentType":5126,
			"count":17195,
			"type":"VEC2"
		},
		{
			"bufferView":4,
			"componentType":5123,
			"count":65430,
			"type":"SCALAR"
		}
	],
	"bufferViews":[
		{
			"buffer":0,
			"byteLength":206340,
			"byteOffset":0,
			"target":34962
		},
		{
			"buffer":0,
			"byteLength":206340,
			"byteOffset":206340,
			"target":34962
		},
		{
			"buffer":0,
			"byteLength":137560,
			"byteOffset":412680,
			"target":34962
		},
		{
			"buffer":0,
			"byteLength":137560,
			"byteOffset":550240,
			"target":34962
		},
		{
			"buffer":0,
			"byteLength":130860,
			"byteOffset":687800,
			"target":34963
		}
	],
	"samplers":[
		{
			"magFilter":9729,
			"minFilter":9987
		}
	],
	"buffers":[
		{
			"byteLength":818660,
			"uri":"weapon_pist_tec9.bin"
		}
	]
}
