{
	"asset":{
		"generator":"Khronos glTF Blender I/O v4.5.49",
		"version":"2.0"
	},
	"scene":0,
	"scenes":[
		{
			"name":"Scene",
			"nodes":[
				0
			]
		}
	],
	"nodes":[
		{
			"mesh":0,
			"name":"model",
			"rotation":[
				-0.4999999403953552,
				-0.4999999403953552,
				-0.5000001788139343,
				0.5000000596046448
			],
			"scale":[
				3.000000476837158,
				3.000000476837158,
				3.000000476837158
			]
		}
	],
	"materials":[
		{
			"doubleSided":true,
			"name":"AppliedTextureMaterial",
			"pbrMetallicRoughness":{
				"baseColorTexture":{
					"index":0
				},
				"metallicFactor":0,
				"roughnessFactor":0.5
			}
		}
	],
	"meshes":[
		{
			"name":"model.046",
			"primitives":[
				{
					"attributes":{
						"POSITION":0,
						"NORMAL":1,
						"TEXCOORD_0":2,
						"TEXCOORD_1":3
					},
					"indices":4,
					"material":0
				}
			]
		}
	],
	"textures":[
		{
			"sampler":0,
			"source":0
		}
	],
	"images":[
		{
			"mimeType":"image/png",
			"name":"applied_texture",
			"uri":"applied_texture.png"
		}
	],
	"accessors":[
		{
			"bufferView":0,
			"componentType":5126,
			"count":29128,
			"max":[
				14.05173110961914,
				1.3195905685424805,
				5.9529500007629395
			],
			"min":[
				-14.051732063293457,
				-1.3195910453796387,
				-5.952950477600098
			],
			"type":"VEC3"
		},
		{
			"bufferView":1,
			"componentType":5126,
			"count":29128,
			"type":"VEC3"
		},
		{
			"bufferView":2,
			"componentType":5126,
			"count":29128,
			"type":"VEC2"
		},
		{
			"bufferView":3,
			"componentType":5126,
			"count":29128,
			"type":"VEC2"
		},
		{
			"bufferView":4,
			"componentType":5123,
			"count":113397,
			"type":"SCALAR"
		}
	],
	"bufferViews":[
		{
			"buffer":0,
			"byteLength":349536,
			"byteOffset":0,
			"target":34962
		},
		{
			"buffer":0,
			"byteLength":349536,
			"byteOffset":349536,
			"target":34962
		},
		{
			"buffer":0,
			"byteLength":233024,
			"byteOffset":699072,
			"target":34962
		},
		{
			"buffer":0,
			"byteLength":233024,
			"byteOffset":932096,
			"target":34962
		},
		{
			"buffer":0,
			"byteLength":226794,
			"byteOffset":1165120,
			"target":34963
		}
	],
	"samplers":[
		{
			"magFilter":9729,
			"minFilter":9987
		}
	],
	"buffers":[
		{
			"byteLength":1391916,
			"uri":"weapon_smg_mp5sd.bin"
		}
	]
}
