{
	"asset":{
		"generator":"Khronos glTF Blender I/O v4.5.49",
		"version":"2.0"
	},
	"scene":0,
	"scenes":[
		{
			"name":"Scene",
			"nodes":[
				0
			]
		}
	],
	"nodes":[
		{
			"mesh":0,
			"name":"model",
			"rotation":[
				-0.4999999403953552,
				-0.4999999403953552,
				-0.5000001788139343,
				0.5000000596046448
			],
			"scale":[
				3.000000476837158,
				3.000000476837158,
				3.000000476837158
			]
		}
	],
	"materials":[
		{
			"doubleSided":true,
			"name":"AppliedTextureMaterial",
			"pbrMetallicRoughness":{
				"baseColorTexture":{
					"index":0
				},
				"metallicFactor":0,
				"roughnessFactor":0.5
			}
		}
	],
	"meshes":[
		{
			"name":"model.038",
			"primitives":[
				{
					"attributes":{
						"POSITION":0,
						"NORMAL":1,
						"TEXCOORD_0":2,
						"TEXCOORD_1":3
					},
					"indices":4,
					"material":0
				}
			]
		}
	],
	"textures":[
		{
			"sampler":0,
			"source":0
		}
	],
	"images":[
		{
			"mimeType":"image/png",
			"name":"applied_texture",
			"uri":"applied_texture.png"
		}
	],
	"accessors":[
		{
			"bufferView":0,
			"componentType":5126,
			"count":39849,
			"max":[
				17.645408630371094,
				1.796862244606018,
				5.748515605926514
			],
			"min":[
				-17.645410537719727,
				-1.7968621253967285,
				-5.748515605926514
			],
			"type":"VEC3"
		},
		{
			"bufferView":1,
			"componentType":5126,
			"count":39849,
			"type":"VEC3"
		},
		{
			"bufferView":2,
			"componentType":5126,
			"count":39849,
			"type":"VEC2"
		},
		{
			"bufferView":3,
			"componentType":5126,
			"count":39849,
			"type":"VEC2"
		},
		{
			"bufferView":4,
			"componentType":5123,
			"count":136266,
			"type":"SCALAR"
		}
	],
	"bufferViews":[
		{
			"buffer":0,
			"byteLength":478188,
			"byteOffset":0,
			"target":34962
		},
		{
			"buffer":0,
			"byteLength":478188,
			"byteOffset":478188,
			"target":34962
		},
		{
			"buffer":0,
			"byteLength":318792,
			"byteOffset":956376,
			"target":34962
		},
		{
			"buffer":0,
			"byteLength":318792,
			"byteOffset":1275168,
			"target":34962
		},
		{
			"buffer":0,
			"byteLength":272532,
			"byteOffset":1593960,
			"target":34963
		}
	],
	"samplers":[
		{
			"magFilter":9729,
			"minFilter":9987
		}
	],
	"buffers":[
		{
			"byteLength":1866492,
			"uri":"weapon_rif_m4a4.bin"
		}
	]
}
