{
	"asset":{
		"generator":"Khronos glTF Blender I/O v4.5.49",
		"version":"2.0"
	},
	"scene":0,
	"scenes":[
		{
			"name":"Scene",
			"nodes":[
				0
			]
		}
	],
	"nodes":[
		{
			"mesh":0,
			"name":"model",
			"rotation":[
				-0.4999999403953552,
				-0.4999999403953552,
				-0.5000001788139343,
				0.5000000596046448
			],
			"scale":[
				3.000000476837158,
				3.000000476837158,
				3.000000476837158
			]
		}
	],
	"materials":[
		{
			"doubleSided":true,
			"name":"AppliedTextureMaterial",
			"pbrMetallicRoughness":{
				"baseColorTexture":{
					"index":0
				},
				"metallicFactor":0,
				"roughnessFactor":0.5
			}
		}
	],
	"meshes":[
		{
			"name":"model.045",
			"primitives":[
				{
					"attributes":{
						"POSITION":0,
						"NORMAL":1,
						"TEXCOORD_0":2,
						"TEXCOORD_1":3
					},
					"indices":4,
					"material":0
				}
			]
		}
	],
	"textures":[
		{
			"sampler":0,
			"source":0
		}
	],
	"images":[
		{
			"mimeType":"image/png",
			"name":"applied_texture",
			"uri":"applied_texture.png"
		}
	],
	"accessors":[
		{
			"bufferView":0,
			"componentType":5126,
			"count":23759,
			"max":[
				6.499941825866699,
				1.2443369626998901,
				6.095503330230713
			],
			"min":[
				-6.499941349029541,
				-1.2443370819091797,
				-6.095503330230713
			],
			"type":"VEC3"
		},
		{
			"bufferView":1,
			"componentType":5126,
			"count":23759,
			"type":"VEC3"
		},
		{
			"bufferView":2,
			"componentType":5126,
			"count":23759,
			"type":"VEC2"
		},
		{
			"bufferView":3,
			"componentType":5126,
			"count":23759,
			"type":"VEC2"
		},
		{
			"bufferView":4,
			"componentType":5123,
			"count":76167,
			"type":"SCALAR"
		}
	],
	"bufferViews":[
		{
			"buffer":0,
			"byteLength":285108,
			"byteOffset":0,
			"target":34962
		},
		{
			"buffer":0,
			"byteLength":285108,
			"byteOffset":285108,
			"target":34962
		},
		{
			"buffer":0,
			"byteLength":190072,
			"byteOffset":570216,
			"target":34962
		},
		{
			"buffer":0,
			"byteLength":190072,
			"byteOffset":760288,
			"target":34962
		},
		{
			"buffer":0,
			"byteLength":152334,
			"byteOffset":950360,
			"target":34963
		}
	],
	"samplers":[
		{
			"magFilter":9729,
			"minFilter":9987
		}
	],
	"buffers":[
		{
			"byteLength":1102696,
			"uri":"weapon_smg_mac10.bin"
		}
	]
}
