{
	"asset":{
		"generator":"Khronos glTF Blender I/O v4.5.49",
		"version":"2.0"
	},
	"scene":0,
	"scenes":[
		{
			"name":"Scene",
			"nodes":[
				0
			]
		}
	],
	"nodes":[
		{
			"mesh":0,
			"name":"model",
			"rotation":[
				-0.4999999403953552,
				-0.4999999403953552,
				-0.5000001788139343,
				0.5000000596046448
			],
			"scale":[
				3.000000476837158,
				3.000000476837158,
				3.000000476837158
			]
		}
	],
	"materials":[
		{
			"doubleSided":true,
			"name":"AppliedTextureMaterial",
			"pbrMetallicRoughness":{
				"baseColorTexture":{
					"index":0
				},
				"metallicFactor":0,
				"roughnessFactor":0.5
			}
		}
	],
	"meshes":[
		{
			"name":"model.053",
			"primitives":[
				{
					"attributes":{
						"POSITION":0,
						"NORMAL":1,
						"TEXCOORD_0":2,
						"TEXCOORD_1":3
					},
					"indices":4,
					"material":0
				}
			]
		}
	],
	"textures":[
		{
			"sampler":0,
			"source":0
		}
	],
	"images":[
		{
			"mimeType":"image/png",
			"name":"applied_texture",
			"uri":"applied_texture.png"
		}
	],
	"accessors":[
		{
			"bufferView":0,
			"componentType":5126,
			"count":48407,
			"max":[
				21.274642944335938,
				1.5016518831253052,
				5.40633487701416
			],
			"min":[
				-21.274642944335938,
				-1.5016517639160156,
				-5.406335353851318
			],
			"type":"VEC3"
		},
		{
			"bufferView":1,
			"componentType":5126,
			"count":48407,
			"type":"VEC3"
		},
		{
			"bufferView":2,
			"componentType":5126,
			"count":48407,
			"type":"VEC2"
		},
		{
			"bufferView":3,
			"componentType":5126,
			"count":48407,
			"type":"VEC2"
		},
		{
			"bufferView":4,
			"componentType":5123,
			"count":164556,
			"type":"SCALAR"
		}
	],
	"bufferViews":[
		{
			"buffer":0,
			"byteLength":580884,
			"byteOffset":0,
			"target":34962
		},
		{
			"buffer":0,
			"byteLength":580884,
			"byteOffset":580884,
			"target":34962
		},
		{
			"buffer":0,
			"byteLength":387256,
			"byteOffset":1161768,
			"target":34962
		},
		{
			"buffer":0,
			"byteLength":387256,
			"byteOffset":1549024,
			"target":34962
		},
		{
			"buffer":0,
			"byteLength":329112,
			"byteOffset":1936280,
			"target":34963
		}
	],
	"samplers":[
		{
			"magFilter":9729,
			"minFilter":9987
		}
	],
	"buffers":[
		{
			"byteLength":2265392,
			"uri":"weapon_snip_scar20.bin"
		}
	]
}
