{
	"asset":{
		"generator":"Khronos glTF Blender I/O v4.5.49",
		"version":"2.0"
	},
	"scene":0,
	"scenes":[
		{
			"name":"Scene",
			"nodes":[
				0
			]
		}
	],
	"nodes":[
		{
			"mesh":0,
			"name":"model",
			"rotation":[
				-0.4999999403953552,
				-0.4999999403953552,
				-0.5000001788139343,
				0.5000000596046448
			],
			"scale":[
				3.000000476837158,
				3.000000476837158,
				3.000000476837158
			]
		}
	],
	"materials":[
		{
			"doubleSided":true,
			"name":"AppliedTextureMaterial",
			"pbrMetallicRoughness":{
				"baseColorTexture":{
					"index":0
				},
				"metallicFactor":0,
				"roughnessFactor":0.5
			}
		}
	],
	"meshes":[
		{
			"name":"model.034",
			"primitives":[
				{
					"attributes":{
						"POSITION":0,
						"NORMAL":1,
						"TEXCOORD_0":2,
						"TEXCOORD_1":3
					},
					"indices":4,
					"material":0
				}
			]
		}
	],
	"textures":[
		{
			"sampler":0,
			"source":0
		}
	],
	"images":[
		{
			"mimeType":"image/png",
			"name":"applied_texture",
			"uri":"applied_texture.png"
		}
	],
	"accessors":[
		{
			"bufferView":0,
			"componentType":5126,
			"count":34672,
			"max":[
				15.143180847167969,
				1.8521928787231445,
				6.75948429107666
			],
			"min":[
				-15.143181800842285,
				-1.8521928787231445,
				-6.75948429107666
			],
			"type":"VEC3"
		},
		{
			"bufferView":1,
			"componentType":5126,
			"count":34672,
			"type":"VEC3"
		},
		{
			"bufferView":2,
			"componentType":5126,
			"count":34672,
			"type":"VEC2"
		},
		{
			"bufferView":3,
			"componentType":5126,
			"count":34672,
			"type":"VEC2"
		},
		{
			"bufferView":4,
			"componentType":5123,
			"count":119811,
			"type":"SCALAR"
		}
	],
	"bufferViews":[
		{
			"buffer":0,
			"byteLength":416064,
			"byteOffset":0,
			"target":34962
		},
		{
			"buffer":0,
			"byteLength":416064,
			"byteOffset":416064,
			"target":34962
		},
		{
			"buffer":0,
			"byteLength":277376,
			"byteOffset":832128,
			"target":34962
		},
		{
			"buffer":0,
			"byteLength":277376,
			"byteOffset":1109504,
			"target":34962
		},
		{
			"buffer":0,
			"byteLength":239622,
			"byteOffset":1386880,
			"target":34963
		}
	],
	"samplers":[
		{
			"magFilter":9729,
			"minFilter":9987
		}
	],
	"buffers":[
		{
			"byteLength":1626504,
			"uri":"weapon_rif_aug.bin"
		}
	]
}
