{
	"asset":{
		"generator":"Khronos glTF Blender I/O v4.5.49",
		"version":"2.0"
	},
	"scene":0,
	"scenes":[
		{
			"name":"Scene",
			"nodes":[
				0
			]
		}
	],
	"nodes":[
		{
			"mesh":0,
			"name":"model",
			"rotation":[
				-0.4999999403953552,
				-0.4999999403953552,
				-0.5000001788139343,
				0.5000000596046448
			],
			"scale":[
				3.000000476837158,
				3.000000476837158,
				3.000000476837158
			]
		}
	],
	"materials":[
		{
			"doubleSided":true,
			"name":"AppliedTextureMaterial",
			"pbrMetallicRoughness":{
				"baseColorTexture":{
					"index":0
				},
				"metallicFactor":0,
				"roughnessFactor":0.5
			}
		}
	],
	"meshes":[
		{
			"name":"model.042",
			"primitives":[
				{
					"attributes":{
						"POSITION":0,
						"NORMAL":1,
						"TEXCOORD_0":2,
						"TEXCOORD_1":3
					},
					"indices":4,
					"material":0
				}
			]
		}
	],
	"textures":[
		{
			"sampler":0,
			"source":0
		}
	],
	"images":[
		{
			"mimeType":"image/png",
			"name":"applied_texture",
			"uri":"applied_texture.png"
		}
	],
	"accessors":[
		{
			"bufferView":0,
			"componentType":5126,
			"count":11977,
			"max":[
				13.133359909057617,
				0.9690071940422058,
				2.6569676399230957
			],
			"min":[
				-13.133360862731934,
				-0.969007134437561,
				-2.6569676399230957
			],
			"type":"VEC3"
		},
		{
			"bufferView":1,
			"componentType":5126,
			"count":11977,
			"type":"VEC3"
		},
		{
			"bufferView":2,
			"componentType":5126,
			"count":11977,
			"type":"VEC2"
		},
		{
			"bufferView":3,
			"componentType":5126,
			"count":11977,
			"type":"VEC2"
		},
		{
			"bufferView":4,
			"componentType":5123,
			"count":41970,
			"type":"SCALAR"
		}
	],
	"bufferViews":[
		{
			"buffer":0,
			"byteLength":143724,
			"byteOffset":0,
			"target":34962
		},
		{
			"buffer":0,
			"byteLength":143724,
			"byteOffset":143724,
			"target":34962
		},
		{
			"buffer":0,
			"byteLength":95816,
			"byteOffset":287448,
			"target":34962
		},
		{
			"buffer":0,
			"byteLength":95816,
			"byteOffset":383264,
			"target":34962
		},
		{
			"buffer":0,
			"byteLength":83940,
			"byteOffset":479080,
			"target":34963
		}
	],
	"samplers":[
		{
			"magFilter":9729,
			"minFilter":9987
		}
	],
	"buffers":[
		{
			"byteLength":563020,
			"uri":"weapon_shot_sawedoff.bin"
		}
	]
}
