{
	"asset":{
		"generator":"Khronos glTF Blender I/O v4.5.49",
		"version":"2.0"
	},
	"scene":0,
	"scenes":[
		{
			"name":"Scene",
			"nodes":[
				0
			]
		}
	],
	"nodes":[
		{
			"mesh":0,
			"name":"model",
			"rotation":[
				-0.4999999403953552,
				-0.4999999403953552,
				-0.5000001788139343,
				0.5000000596046448
			],
			"scale":[
				3.000000476837158,
				3.000000476837158,
				3.000000476837158
			]
		}
	],
	"materials":[
		{
			"doubleSided":true,
			"name":"AppliedTextureMaterial",
			"pbrMetallicRoughness":{
				"baseColorTexture":{
					"index":0
				},
				"metallicFactor":0,
				"roughnessFactor":0.5
			}
		}
	],
	"meshes":[
		{
			"name":"model.002",
			"primitives":[
				{
					"attributes":{
						"POSITION":0,
						"NORMAL":1,
						"TEXCOORD_0":2
					},
					"indices":3,
					"material":0
				}
			]
		}
	],
	"textures":[
		{
			"sampler":0,
			"source":0
		}
	],
	"images":[
		{
			"mimeType":"image/png",
			"name":"applied_texture",
			"uri":"applied_texture.png"
		}
	],
	"accessors":[
		{
			"bufferView":0,
			"componentType":5126,
			"count":10434,
			"max":[
				4.000561714172363,
				2.4758505821228027,
				5.15167236328125
			],
			"min":[
				-4.000561714172363,
				-2.4758505821228027,
				-5.15167236328125
			],
			"type":"VEC3"
		},
		{
			"bufferView":1,
			"componentType":5126,
			"count":10434,
			"type":"VEC3"
		},
		{
			"bufferView":2,
			"componentType":5126,
			"count":10434,
			"type":"VEC2"
		},
		{
			"bufferView":3,
			"componentType":5123,
			"count":35988,
			"type":"SCALAR"
		}
	],
	"bufferViews":[
		{
			"buffer":0,
			"byteLength":125208,
			"byteOffset":0,
			"target":34962
		},
		{
			"buffer":0,
			"byteLength":125208,
			"byteOffset":125208,
			"target":34962
		},
		{
			"buffer":0,
			"byteLength":83472,
			"byteOffset":250416,
			"target":34962
		},
		{
			"buffer":0,
			"byteLength":71976,
			"byteOffset":333888,
			"target":34963
		}
	],
	"samplers":[
		{
			"magFilter":9729,
			"minFilter":9987
		}
	],
	"buffers":[
		{
			"byteLength":405864,
			"uri":"weapon_knife_butterfly.bin"
		}
	]
}
