{
	"asset":{
		"generator":"Khronos glTF Blender I/O v4.5.49",
		"version":"2.0"
	},
	"scene":0,
	"scenes":[
		{
			"name":"Scene",
			"nodes":[
				0
			]
		}
	],
	"nodes":[
		{
			"mesh":0,
			"name":"model",
			"rotation":[
				-0.4999999403953552,
				-0.4999999403953552,
				-0.5000001788139343,
				0.5000000596046448
			],
			"scale":[
				3.000000476837158,
				3.000000476837158,
				3.000000476837158
			]
		}
	],
	"materials":[
		{
			"doubleSided":true,
			"name":"AppliedTextureMaterial",
			"pbrMetallicRoughness":{
				"baseColorTexture":{
					"index":0
				},
				"metallicFactor":0,
				"roughnessFactor":0.5
			}
		}
	],
	"meshes":[
		{
			"name":"model.049",
			"primitives":[
				{
					"attributes":{
						"POSITION":0,
						"NORMAL":1,
						"TEXCOORD_0":2,
						"TEXCOORD_1":3
					},
					"indices":4,
					"material":0
				}
			]
		}
	],
	"textures":[
		{
			"sampler":0,
			"source":0
		}
	],
	"images":[
		{
			"mimeType":"image/png",
			"name":"applied_texture",
			"uri":"applied_texture.png"
		}
	],
	"accessors":[
		{
			"bufferView":0,
			"componentType":5126,
			"count":25287,
			"max":[
				10.190815925598145,
				1.1360585689544678,
				4.349185943603516
			],
			"min":[
				-10.190816879272461,
				-1.1360586881637573,
				-4.349185943603516
			],
			"type":"VEC3"
		},
		{
			"bufferView":1,
			"componentType":5126,
			"count":25287,
			"type":"VEC3"
		},
		{
			"bufferView":2,
			"componentType":5126,
			"count":25287,
			"type":"VEC2"
		},
		{
			"bufferView":3,
			"componentType":5126,
			"count":25287,
			"type":"VEC2"
		},
		{
			"bufferView":4,
			"componentType":5123,
			"count":74352,
			"type":"SCALAR"
		}
	],
	"bufferViews":[
		{
			"buffer":0,
			"byteLength":303444,
			"byteOffset":0,
			"target":34962
		},
		{
			"buffer":0,
			"byteLength":303444,
			"byteOffset":303444,
			"target":34962
		},
		{
			"buffer":0,
			"byteLength":202296,
			"byteOffset":606888,
			"target":34962
		},
		{
			"buffer":0,
			"byteLength":202296,
			"byteOffset":809184,
			"target":34962
		},
		{
			"buffer":0,
			"byteLength":148704,
			"byteOffset":1011480,
			"target":34963
		}
	],
	"samplers":[
		{
			"magFilter":9729,
			"minFilter":9987
		}
	],
	"buffers":[
		{
			"byteLength":1160184,
			"uri":"weapon_smg_p90.bin"
		}
	]
}
