{
	"asset":{
		"generator":"Khronos glTF Blender I/O v4.5.49",
		"version":"2.0"
	},
	"scene":0,
	"scenes":[
		{
			"name":"Scene",
			"nodes":[
				0
			]
		}
	],
	"nodes":[
		{
			"mesh":0,
			"name":"model",
			"rotation":[
				-0.4999999403953552,
				-0.4999999403953552,
				-0.5000001788139343,
				0.5000000596046448
			],
			"scale":[
				3.000000476837158,
				3.000000476837158,
				3.000000476837158
			]
		}
	],
	"materials":[
		{
			"doubleSided":true,
			"name":"AppliedTextureMaterial",
			"pbrMetallicRoughness":{
				"baseColorTexture":{
					"index":0
				},
				"metallicFactor":0,
				"roughnessFactor":0.5
			}
		}
	],
	"meshes":[
		{
			"name":"model.016",
			"primitives":[
				{
					"attributes":{
						"POSITION":0,
						"NORMAL":1,
						"TEXCOORD_0":2
					},
					"indices":3,
					"material":0
				}
			]
		}
	],
	"textures":[
		{
			"sampler":0,
			"source":0
		}
	],
	"images":[
		{
			"mimeType":"image/png",
			"name":"applied_texture",
			"uri":"applied_texture.png"
		}
	],
	"accessors":[
		{
			"bufferView":0,
			"componentType":5126,
			"count":6540,
			"max":[
				0.8392966985702515,
				0.5808885097503662,
				6.701127052307129
			],
			"min":[
				-0.8392967581748962,
				-0.5808885097503662,
				-6.701127052307129
			],
			"type":"VEC3"
		},
		{
			"bufferView":1,
			"componentType":5126,
			"count":6540,
			"type":"VEC3"
		},
		{
			"bufferView":2,
			"componentType":5126,
			"count":6540,
			"type":"VEC2"
		},
		{
			"bufferView":3,
			"componentType":5123,
			"count":24009,
			"type":"SCALAR"
		}
	],
	"bufferViews":[
		{
			"buffer":0,
			"byteLength":78480,
			"byteOffset":0,
			"target":34962
		},
		{
			"buffer":0,
			"byteLength":78480,
			"byteOffset":78480,
			"target":34962
		},
		{
			"buffer":0,
			"byteLength":52320,
			"byteOffset":156960,
			"target":34962
		},
		{
			"buffer":0,
			"byteLength":48018,
			"byteOffset":209280,
			"target":34963
		}
	],
	"samplers":[
		{
			"magFilter":9729,
			"minFilter":9987
		}
	],
	"buffers":[
		{
			"byteLength":257300,
			"uri":"weapon_knife_stiletto.bin"
		}
	]
}
