{
	"asset":{
		"generator":"Khronos glTF Blender I/O v4.5.49",
		"version":"2.0"
	},
	"scene":0,
	"scenes":[
		{
			"name":"Scene",
			"nodes":[
				0
			]
		}
	],
	"nodes":[
		{
			"mesh":0,
			"name":"model",
			"rotation":[
				-0.4999999403953552,
				-0.4999999403953552,
				-0.5000001788139343,
				0.5000000596046448
			],
			"scale":[
				3.000000476837158,
				3.000000476837158,
				3.000000476837158
			]
		}
	],
	"materials":[
		{
			"doubleSided":true,
			"name":"AppliedTextureMaterial",
			"pbrMetallicRoughness":{
				"baseColorTexture":{
					"index":0
				},
				"metallicFactor":0,
				"roughnessFactor":0.5
			}
		}
	],
	"meshes":[
		{
			"name":"model.023",
			"primitives":[
				{
					"attributes":{
						"POSITION":0,
						"NORMAL":1,
						"TEXCOORD_0":2,
						"TEXCOORD_1":3
					},
					"indices":4,
					"material":0
				}
			]
		}
	],
	"textures":[
		{
			"sampler":0,
			"source":0
		}
	],
	"images":[
		{
			"mimeType":"image/png",
			"name":"applied_texture",
			"uri":"applied_texture.png"
		}
	],
	"accessors":[
		{
			"bufferView":0,
			"componentType":5126,
			"count":15273,
			"max":[
				5.775120735168457,
				0.8737103343009949,
				3.331214189529419
			],
			"min":[
				-5.775120735168457,
				-0.8737103343009949,
				-3.331214427947998
			],
			"type":"VEC3"
		},
		{
			"bufferView":1,
			"componentType":5126,
			"count":15273,
			"type":"VEC3"
		},
		{
			"bufferView":2,
			"componentType":5126,
			"count":15273,
			"type":"VEC2"
		},
		{
			"bufferView":3,
			"componentType":5126,
			"count":15273,
			"type":"VEC2"
		},
		{
			"bufferView":4,
			"componentType":5123,
			"count":54807,
			"type":"SCALAR"
		}
	],
	"bufferViews":[
		{
			"buffer":0,
			"byteLength":183276,
			"byteOffset":0,
			"target":34962
		},
		{
			"buffer":0,
			"byteLength":183276,
			"byteOffset":183276,
			"target":34962
		},
		{
			"buffer":0,
			"byteLength":122184,
			"byteOffset":366552,
			"target":34962
		},
		{
			"buffer":0,
			"byteLength":122184,
			"byteOffset":488736,
			"target":34962
		},
		{
			"buffer":0,
			"byteLength":109614,
			"byteOffset":610920,
			"target":34963
		}
	],
	"samplers":[
		{
			"magFilter":9729,
			"minFilter":9987
		}
	],
	"buffers":[
		{
			"byteLength":720536,
			"uri":"weapon_pist_deagle.bin"
		}
	]
}
