{
	"asset":{
		"generator":"Khronos glTF Blender I/O v4.5.49",
		"version":"2.0"
	},
	"scene":0,
	"scenes":[
		{
			"name":"Scene",
			"nodes":[
				0
			]
		}
	],
	"nodes":[
		{
			"mesh":0,
			"name":"model",
			"rotation":[
				-0.4999999403953552,
				-0.4999999403953552,
				-0.5000001788139343,
				0.5000000596046448
			],
			"scale":[
				3.000000476837158,
				3.000000476837158,
				3.000000476837158
			]
		}
	],
	"materials":[
		{
			"doubleSided":true,
			"name":"AppliedTextureMaterial",
			"pbrMetallicRoughness":{
				"baseColorTexture":{
					"index":0
				},
				"metallicFactor":0,
				"roughnessFactor":0.5
			}
		}
	],
	"meshes":[
		{
			"name":"model.035",
			"primitives":[
				{
					"attributes":{
						"POSITION":0,
						"NORMAL":1,
						"TEXCOORD_0":2,
						"TEXCOORD_1":3
					},
					"indices":4,
					"material":0
				}
			]
		}
	],
	"textures":[
		{
			"sampler":0,
			"source":0
		}
	],
	"images":[
		{
			"mimeType":"image/png",
			"name":"applied_texture",
			"uri":"applied_texture.png"
		}
	],
	"accessors":[
		{
			"bufferView":0,
			"componentType":5126,
			"count":29204,
			"max":[
				17.238365173339844,
				1.6229523420333862,
				6.454323768615723
			],
			"min":[
				-17.23836326599121,
				-1.6229524612426758,
				-6.454323768615723
			],
			"type":"VEC3"
		},
		{
			"bufferView":1,
			"componentType":5126,
			"count":29204,
			"type":"VEC3"
		},
		{
			"bufferView":2,
			"componentType":5126,
			"count":29204,
			"type":"VEC2"
		},
		{
			"bufferView":3,
			"componentType":5126,
			"count":29204,
			"type":"VEC2"
		},
		{
			"bufferView":4,
			"componentType":5123,
			"count":98607,
			"type":"SCALAR"
		}
	],
	"bufferViews":[
		{
			"buffer":0,
			"byteLength":350448,
			"byteOffset":0,
			"target":34962
		},
		{
			"buffer":0,
			"byteLength":350448,
			"byteOffset":350448,
			"target":34962
		},
		{
			"buffer":0,
			"byteLength":233632,
			"byteOffset":700896,
			"target":34962
		},
		{
			"buffer":0,
			"byteLength":233632,
			"byteOffset":934528,
			"target":34962
		},
		{
			"buffer":0,
			"byteLength":197214,
			"byteOffset":1168160,
			"target":34963
		}
	],
	"samplers":[
		{
			"magFilter":9729,
			"minFilter":9987
		}
	],
	"buffers":[
		{
			"byteLength":1365376,
			"uri":"weapon_rif_famas.bin"
		}
	]
}
