{
	"asset":{
		"generator":"Khronos glTF Blender I/O v4.5.49",
		"version":"2.0"
	},
	"scene":0,
	"scenes":[
		{
			"name":"Scene",
			"nodes":[
				0,
				1,
				2,
				3,
				4,
				5
			]
		}
	],
	"nodes":[
		{
			"mesh":0,
			"name":"left",
			"scale":[
				3,
				3,
				3
			]
		},
		{
			"mesh":1,
			"name":"left_2",
			"scale":[
				3,
				3,
				3
			]
		},
		{
			"mesh":2,
			"name":"left_3",
			"scale":[
				3,
				3,
				3
			]
		},
		{
			"mesh":3,
			"name":"right",
			"scale":[
				3,
				3,
				3
			]
		},
		{
			"mesh":4,
			"name":"right_2",
			"scale":[
				3,
				3,
				3
			]
		},
		{
			"mesh":5,
			"name":"right_3",
			"scale":[
				3,
				3,
				3
			]
		}
	],
	"materials":[
		{
			"doubleSided":true,
			"name":"Material.007",
			"pbrMetallicRoughness":{
				"baseColorTexture":{
					"index":0
				},
				"metallicFactor":0,
				"roughnessFactor":0.5
			}
		},
		{
			"doubleSided":true,
			"name":"Material.008",
			"pbrMetallicRoughness":{
				"baseColorTexture":{
					"index":1
				},
				"metallicFactor":0,
				"roughnessFactor":0.5
			}
		},
		{
			"doubleSided":true,
			"name":"Material.009",
			"pbrMetallicRoughness":{
				"baseColorTexture":{
					"index":2
				},
				"metallicFactor":0,
				"roughnessFactor":0.5
			}
		},
		{
			"doubleSided":true,
			"name":"Material.010",
			"pbrMetallicRoughness":{
				"baseColorTexture":{
					"index":3
				},
				"metallicFactor":0,
				"roughnessFactor":0.5
			}
		},
		{
			"doubleSided":true,
			"name":"Material.011",
			"pbrMetallicRoughness":{
				"baseColorTexture":{
					"index":4
				},
				"metallicFactor":0,
				"roughnessFactor":0.5
			}
		},
		{
			"doubleSided":true,
			"name":"Material.012",
			"pbrMetallicRoughness":{
				"baseColorTexture":{
					"index":5
				},
				"metallicFactor":0,
				"roughnessFactor":0.5
			}
		}
	],
	"meshes":[
		{
			"name":"left.002",
			"primitives":[
				{
					"attributes":{
						"POSITION":0,
						"NORMAL":1,
						"TEXCOORD_0":2
					},
					"indices":3,
					"material":0
				}
			]
		},
		{
			"name":"left_2.001",
			"primitives":[
				{
					"attributes":{
						"POSITION":4,
						"NORMAL":5,
						"TEXCOORD_0":6
					},
					"indices":7,
					"material":1
				}
			]
		},
		{
			"name":"left_3",
			"primitives":[
				{
					"attributes":{
						"POSITION":8,
						"NORMAL":9,
						"TEXCOORD_0":10
					},
					"indices":11,
					"material":2
				}
			]
		},
		{
			"name":"right.002",
			"primitives":[
				{
					"attributes":{
						"POSITION":12,
						"NORMAL":13,
						"TEXCOORD_0":14
					},
					"indices":15,
					"material":3
				}
			]
		},
		{
			"name":"right_2.001",
			"primitives":[
				{
					"attributes":{
						"POSITION":16,
						"NORMAL":17,
						"TEXCOORD_0":18
					},
					"indices":19,
					"material":4
				}
			]
		},
		{
			"name":"right_3",
			"primitives":[
				{
					"attributes":{
						"POSITION":20,
						"NORMAL":21,
						"TEXCOORD_0":22
					},
					"indices":23,
					"material":5
				}
			]
		}
	],
	"textures":[
		{
			"sampler":0,
			"source":0
		},
		{
			"sampler":0,
			"source":0
		},
		{
			"sampler":0,
			"source":0
		},
		{
			"sampler":0,
			"source":1
		},
		{
			"sampler":0,
			"source":1
		},
		{
			"sampler":0,
			"source":1
		}
	],
	"images":[
		{
			"mimeType":"image/png",
			"name":"applied_texture_l",
			"uri":"applied_texture_l.png"
		},
		{
			"mimeType":"image/png",
			"name":"applied_texture_r",
			"uri":"applied_texture_r.png"
		}
	],
	"accessors":[
		{
			"bufferView":0,
			"componentType":5126,
			"count":1857,
			"max":[
				1.0588274002075195,
				27.11505889892578,
				4.819764137268066
			],
			"min":[
				-4.092304229736328,
				20.79766082763672,
				-1.1715623140335083
			],
			"type":"VEC3"
		},
		{
			"bufferView":1,
			"componentType":5126,
			"count":1857,
			"type":"VEC3"
		},
		{
			"bufferView":2,
			"componentType":5126,
			"count":1857,
			"type":"VEC2"
		},
		{
			"bufferView":3,
			"componentType":5123,
			"count":9732,
			"type":"SCALAR"
		},
		{
			"bufferView":4,
			"componentType":5126,
			"count":830,
			"max":[
				-0.09786545485258102,
				26.946739196777344,
				4.4581298828125
			],
			"min":[
				-3.9309983253479004,
				23.23799705505371,
				-0.09352028369903564
			],
			"type":"VEC3"
		},
		{
			"bufferView":5,
			"componentType":5126,
			"count":830,
			"type":"VEC3"
		},
		{
			"bufferView":6,
			"componentType":5126,
			"count":830,
			"type":"VEC2"
		},
		{
			"bufferView":7,
			"componentType":5123,
			"count":3126,
			"type":"SCALAR"
		},
		{
			"bufferView":8,
			"componentType":5126,
			"count":4027,
			"max":[
				0.28609922528266907,
				26.0604190826416,
				2.968651056289673
			],
			"min":[
				-2.935647487640381,
				22.037405014038086,
				1.421836256980896
			],
			"type":"VEC3"
		},
		{
			"bufferView":9,
			"componentType":5126,
			"count":4027,
			"type":"VEC3"
		},
		{
			"bufferView":10,
			"componentType":5126,
			"count":4027,
			"type":"VEC2"
		},
		{
			"bufferView":11,
			"componentType":5123,
			"count":21006,
			"type":"SCALAR"
		},
		{
			"bufferView":12,
			"componentType":5126,
			"count":1857,
			"max":[
				1.0588383674621582,
				-20.79766845703125,
				4.819756031036377
			],
			"min":[
				-4.092306137084961,
				-27.11507797241211,
				-1.171562671661377
			],
			"type":"VEC3"
		},
		{
			"bufferView":13,
			"componentType":5126,
			"count":1857,
			"type":"VEC3"
		},
		{
			"bufferView":14,
			"componentType":5126,
			"count":1857,
			"type":"VEC2"
		},
		{
			"bufferView":15,
			"componentType":5123,
			"count":9732,
			"type":"SCALAR"
		},
		{
			"bufferView":16,
			"componentType":5126,
			"count":830,
			"max":[
				-0.09786692261695862,
				-23.23800277709961,
				4.458124160766602
			],
			"min":[
				-3.931006669998169,
				-26.946754455566406,
				-0.09352031350135803
			],
			"type":"VEC3"
		},
		{
			"bufferView":17,
			"componentType":5126,
			"count":830,
			"type":"VEC3"
		},
		{
			"bufferView":18,
			"componentType":5126,
			"count":830,
			"type":"VEC2"
		},
		{
			"bufferView":19,
			"componentType":5123,
			"count":3126,
			"type":"SCALAR"
		},
		{
			"bufferView":20,
			"componentType":5126,
			"count":4024,
			"max":[
				0.2861006557941437,
				-22.037416458129883,
				2.9686527252197266
			],
			"min":[
				-2.9356441497802734,
				-26.0604305267334,
				1.4218376874923706
			],
			"type":"VEC3"
		},
		{
			"bufferView":21,
			"componentType":5126,
			"count":4024,
			"type":"VEC3"
		},
		{
			"bufferView":22,
			"componentType":5126,
			"count":4024,
			"type":"VEC2"
		},
		{
			"bufferView":23,
			"componentType":5123,
			"count":21006,
			"type":"SCALAR"
		}
	],
	"bufferViews":[
		{
			"buffer":0,
			"byteLength":22284,
			"byteOffset":0,
			"target":34962
		},
		{
			"buffer":0,
			"byteLength":22284,
			"byteOffset":22284,
			"target":34962
		},
		{
			"buffer":0,
			"byteLength":14856,
			"byteOffset":44568,
			"target":34962
		},
		{
			"buffer":0,
			"byteLength":19464,
			"byteOffset":59424,
			"target":34963
		},
		{
			"buffer":0,
			"byteLength":9960,
			"byteOffset":78888,
			"target":34962
		},
		{
			"buffer":0,
			"byteLength":9960,
			"byteOffset":88848,
			"target":34962
		},
		{
			"buffer":0,
			"byteLength":6640,
			"byteOffset":98808,
			"target":34962
		},
		{
			"buffer":0,
			"byteLength":6252,
			"byteOffset":105448,
			"target":34963
		},
		{
			"buffer":0,
			"byteLength":48324,
			"byteOffset":111700,
			"target":34962
		},
		{
			"buffer":0,
			"byteLength":48324,
			"byteOffset":160024,
			"target":34962
		},
		{
			"buffer":0,
			"byteLength":32216,
			"byteOffset":208348,
			"target":34962
		},
		{
			"buffer":0,
			"byteLength":42012,
			"byteOffset":240564,
			"target":34963
		},
		{
			"buffer":0,
			"byteLength":22284,
			"byteOffset":282576,
			"target":34962
		},
		{
			"buffer":0,
			"byteLength":22284,
			"byteOffset":304860,
			"target":34962
		},
		{
			"buffer":0,
			"byteLength":14856,
			"byteOffset":327144,
			"target":34962
		},
		{
			"buffer":0,
			"byteLength":19464,
			"byteOffset":342000,
			"target":34963
		},
		{
			"buffer":0,
			"byteLength":9960,
			"byteOffset":361464,
			"target":34962
		},
		{
			"buffer":0,
			"byteLength":9960,
			"byteOffset":371424,
			"target":34962
		},
		{
			"buffer":0,
			"byteLength":6640,
			"byteOffset":381384,
			"target":34962
		},
		{
			"buffer":0,
			"byteLength":6252,
			"byteOffset":388024,
			"target":34963
		},
		{
			"buffer":0,
			"byteLength":48288,
			"byteOffset":394276,
			"target":34962
		},
		{
			"buffer":0,
			"byteLength":48288,
			"byteOffset":442564,
			"target":34962
		},
		{
			"buffer":0,
			"byteLength":32192,
			"byteOffset":490852,
			"target":34962
		},
		{
			"buffer":0,
			"byteLength":42012,
			"byteOffset":523044,
			"target":34963
		}
	],
	"samplers":[
		{
			"magFilter":9729,
			"minFilter":9987
		}
	],
	"buffers":[
		{
			"byteLength":565056,
			"uri":"v_glove_hydra.bin"
		}
	]
}
