{
	"asset":{
		"generator":"Khronos glTF Blender I/O v4.5.49",
		"version":"2.0"
	},
	"scene":0,
	"scenes":[
		{
			"name":"Scene",
			"nodes":[
				0,
				1,
				2,
				3
			]
		}
	],
	"nodes":[
		{
			"mesh":0,
			"name":"left"
		},
		{
			"mesh":1,
			"name":"left_2"
		},
		{
			"mesh":2,
			"name":"right"
		},
		{
			"mesh":3,
			"name":"right_2"
		}
	],
	"materials":[
		{
			"doubleSided":true,
			"name":"Material.015",
			"pbrMetallicRoughness":{
				"baseColorTexture":{
					"index":0
				},
				"metallicFactor":0,
				"roughnessFactor":0.5
			}
		},
		{
			"doubleSided":true,
			"name":"Material.016",
			"pbrMetallicRoughness":{
				"baseColorTexture":{
					"index":1
				},
				"metallicFactor":0,
				"roughnessFactor":0.5
			}
		},
		{
			"doubleSided":true,
			"name":"Material.017",
			"pbrMetallicRoughness":{
				"baseColorTexture":{
					"index":2
				},
				"metallicFactor":0,
				"roughnessFactor":0.5
			}
		},
		{
			"doubleSided":true,
			"name":"Material.018",
			"pbrMetallicRoughness":{
				"baseColorTexture":{
					"index":3
				},
				"metallicFactor":0,
				"roughnessFactor":0.5
			}
		}
	],
	"meshes":[
		{
			"name":"left.004",
			"primitives":[
				{
					"attributes":{
						"POSITION":0,
						"NORMAL":1,
						"TEXCOORD_0":2
					},
					"indices":3,
					"material":0
				}
			]
		},
		{
			"name":"left_2.002",
			"primitives":[
				{
					"attributes":{
						"POSITION":4,
						"NORMAL":5,
						"TEXCOORD_0":6
					},
					"indices":7,
					"material":1
				}
			]
		},
		{
			"name":"right.004",
			"primitives":[
				{
					"attributes":{
						"POSITION":8,
						"NORMAL":9,
						"TEXCOORD_0":10
					},
					"indices":11,
					"material":2
				}
			]
		},
		{
			"name":"right_2.002",
			"primitives":[
				{
					"attributes":{
						"POSITION":12,
						"NORMAL":13,
						"TEXCOORD_0":14
					},
					"indices":15,
					"material":3
				}
			]
		}
	],
	"textures":[
		{
			"sampler":0,
			"source":0
		},
		{
			"sampler":0,
			"source":0
		},
		{
			"sampler":0,
			"source":1
		},
		{
			"sampler":0,
			"source":1
		}
	],
	"images":[
		{
			"mimeType":"image/png",
			"name":"applied_texture_l",
			"uri":"applied_texture_l.png"
		},
		{
			"mimeType":"image/png",
			"name":"applied_texture_r",
			"uri":"applied_texture_r.png"
		}
	],
	"accessors":[
		{
			"bufferView":0,
			"componentType":5126,
			"count":1892,
			"max":[
				1.5438182353973389,
				28.594511032104492,
				4.893035888671875
			],
			"min":[
				-4.273261070251465,
				20.902616500854492,
				-2.5580062866210938
			],
			"type":"VEC3"
		},
		{
			"bufferView":1,
			"componentType":5126,
			"count":1892,
			"type":"VEC3"
		},
		{
			"bufferView":2,
			"componentType":5126,
			"count":1892,
			"type":"VEC2"
		},
		{
			"bufferView":3,
			"componentType":5123,
			"count":9294,
			"type":"SCALAR"
		},
		{
			"bufferView":4,
			"componentType":5126,
			"count":97,
			"max":[
				0.0044268458150327206,
				22.184389114379883,
				3.3907394409179688
			],
			"min":[
				-0.25880327820777893,
				21.611351013183594,
				2.8031561374664307
			],
			"type":"VEC3"
		},
		{
			"bufferView":5,
			"componentType":5126,
			"count":97,
			"type":"VEC3"
		},
		{
			"bufferView":6,
			"componentType":5126,
			"count":97,
			"type":"VEC2"
		},
		{
			"bufferView":7,
			"componentType":5123,
			"count":504,
			"type":"SCALAR"
		},
		{
			"bufferView":8,
			"componentType":5126,
			"count":1892,
			"max":[
				1.5438263416290283,
				-20.902618408203125,
				4.893028259277344
			],
			"min":[
				-4.273262977600098,
				-28.594518661499023,
				-2.55800199508667
			],
			"type":"VEC3"
		},
		{
			"bufferView":9,
			"componentType":5126,
			"count":1892,
			"type":"VEC3"
		},
		{
			"bufferView":10,
			"componentType":5126,
			"count":1892,
			"type":"VEC2"
		},
		{
			"bufferView":11,
			"componentType":5123,
			"count":9294,
			"type":"SCALAR"
		},
		{
			"bufferView":12,
			"componentType":5126,
			"count":97,
			"max":[
				0.004433373920619488,
				-21.611360549926758,
				3.3907310962677
			],
			"min":[
				-0.2587970197200775,
				-22.18439483642578,
				2.803147315979004
			],
			"type":"VEC3"
		},
		{
			"bufferView":13,
			"componentType":5126,
			"count":97,
			"type":"VEC3"
		},
		{
			"bufferView":14,
			"componentType":5126,
			"count":97,
			"type":"VEC2"
		},
		{
			"bufferView":15,
			"componentType":5123,
			"count":504,
			"type":"SCALAR"
		}
	],
	"bufferViews":[
		{
			"buffer":0,
			"byteLength":22704,
			"byteOffset":0,
			"target":34962
		},
		{
			"buffer":0,
			"byteLength":22704,
			"byteOffset":22704,
			"target":34962
		},
		{
			"buffer":0,
			"byteLength":15136,
			"byteOffset":45408,
			"target":34962
		},
		{
			"buffer":0,
			"byteLength":18588,
			"byteOffset":60544,
			"target":34963
		},
		{
			"buffer":0,
			"byteLength":1164,
			"byteOffset":79132,
			"target":34962
		},
		{
			"buffer":0,
			"byteLength":1164,
			"byteOffset":80296,
			"target":34962
		},
		{
			"buffer":0,
			"byteLength":776,
			"byteOffset":81460,
			"target":34962
		},
		{
			"buffer":0,
			"byteLength":1008,
			"byteOffset":82236,
			"target":34963
		},
		{
			"buffer":0,
			"byteLength":22704,
			"byteOffset":83244,
			"target":34962
		},
		{
			"buffer":0,
			"byteLength":22704,
			"byteOffset":105948,
			"target":34962
		},
		{
			"buffer":0,
			"byteLength":15136,
			"byteOffset":128652,
			"target":34962
		},
		{
			"buffer":0,
			"byteLength":18588,
			"byteOffset":143788,
			"target":34963
		},
		{
			"buffer":0,
			"byteLength":1164,
			"byteOffset":162376,
			"target":34962
		},
		{
			"buffer":0,
			"byteLength":1164,
			"byteOffset":163540,
			"target":34962
		},
		{
			"buffer":0,
			"byteLength":776,
			"byteOffset":164704,
			"target":34962
		},
		{
			"buffer":0,
			"byteLength":1008,
			"byteOffset":165480,
			"target":34963
		}
	],
	"samplers":[
		{
			"magFilter":9729,
			"minFilter":9987
		}
	],
	"buffers":[
		{
			"byteLength":166488,
			"uri":"v_glove_slick.bin"
		}
	]
}
