{
	"asset":{
		"generator":"Khronos glTF Blender I/O v4.5.49",
		"version":"2.0"
	},
	"scene":0,
	"scenes":[
		{
			"name":"Scene",
			"nodes":[
				0,
				1
			]
		}
	],
	"nodes":[
		{
			"mesh":0,
			"name":"left"
		},
		{
			"mesh":1,
			"name":"right"
		}
	],
	"materials":[
		{
			"doubleSided":true,
			"name":"Material.005",
			"pbrMetallicRoughness":{
				"baseColorTexture":{
					"index":0
				},
				"metallicFactor":0,
				"roughnessFactor":0.5
			}
		},
		{
			"doubleSided":true,
			"name":"Material.006",
			"pbrMetallicRoughness":{
				"baseColorTexture":{
					"index":1
				},
				"metallicFactor":0,
				"roughnessFactor":0.5
			}
		}
	],
	"meshes":[
		{
			"name":"left.001",
			"primitives":[
				{
					"attributes":{
						"POSITION":0,
						"NORMAL":1,
						"TEXCOORD_0":2
					},
					"indices":3,
					"material":0
				}
			]
		},
		{
			"name":"right.001",
			"primitives":[
				{
					"attributes":{
						"POSITION":4,
						"NORMAL":5,
						"TEXCOORD_0":6
					},
					"indices":7,
					"material":1
				}
			]
		}
	],
	"textures":[
		{
			"sampler":0,
			"source":0
		},
		{
			"sampler":0,
			"source":1
		}
	],
	"images":[
		{
			"mimeType":"image/png",
			"name":"applied_texture_l",
			"uri":"applied_texture_l.png"
		},
		{
			"mimeType":"image/png",
			"name":"applied_texture_r",
			"uri":"applied_texture_r.png"
		}
	],
	"accessors":[
		{
			"bufferView":0,
			"componentType":5126,
			"count":2784,
			"max":[
				0.823249876499176,
				26.652130126953125,
				4.720298767089844
			],
			"min":[
				-4.076534748077393,
				20.986263275146484,
				-1.050635814666748
			],
			"type":"VEC3"
		},
		{
			"bufferView":1,
			"componentType":5126,
			"count":2784,
			"type":"VEC3"
		},
		{
			"bufferView":2,
			"componentType":5126,
			"count":2784,
			"type":"VEC2"
		},
		{
			"bufferView":3,
			"componentType":5123,
			"count":12750,
			"type":"SCALAR"
		},
		{
			"bufferView":4,
			"componentType":5126,
			"count":2784,
			"max":[
				0.8232518434524536,
				-20.986265182495117,
				4.720290184020996
			],
			"min":[
				-4.076541900634766,
				-26.65215492248535,
				-1.0506361722946167
			],
			"type":"VEC3"
		},
		{
			"bufferView":5,
			"componentType":5126,
			"count":2784,
			"type":"VEC3"
		},
		{
			"bufferView":6,
			"componentType":5126,
			"count":2784,
			"type":"VEC2"
		},
		{
			"bufferView":7,
			"componentType":5123,
			"count":12750,
			"type":"SCALAR"
		}
	],
	"bufferViews":[
		{
			"buffer":0,
			"byteLength":33408,
			"byteOffset":0,
			"target":34962
		},
		{
			"buffer":0,
			"byteLength":33408,
			"byteOffset":33408,
			"target":34962
		},
		{
			"buffer":0,
			"byteLength":22272,
			"byteOffset":66816,
			"target":34962
		},
		{
			"buffer":0,
			"byteLength":25500,
			"byteOffset":89088,
			"target":34963
		},
		{
			"buffer":0,
			"byteLength":33408,
			"byteOffset":114588,
			"target":34962
		},
		{
			"buffer":0,
			"byteLength":33408,
			"byteOffset":147996,
			"target":34962
		},
		{
			"buffer":0,
			"byteLength":22272,
			"byteOffset":181404,
			"target":34962
		},
		{
			"buffer":0,
			"byteLength":25500,
			"byteOffset":203676,
			"target":34963
		}
	],
	"samplers":[
		{
			"magFilter":9729,
			"minFilter":9987
		}
	],
	"buffers":[
		{
			"byteLength":229176,
			"uri":"v_glove_handwrap.bin"
		}
	]
}
