{
	"asset":{
		"generator":"Khronos glTF Blender I/O v4.5.49",
		"version":"2.0"
	},
	"scene":0,
	"scenes":[
		{
			"name":"Scene",
			"nodes":[
				0,
				1,
				2,
				3
			]
		}
	],
	"nodes":[
		{
			"mesh":0,
			"name":"left",
			"scale":[
				3,
				3,
				3
			]
		},
		{
			"mesh":1,
			"name":"left_2",
			"scale":[
				3,
				3,
				3
			]
		},
		{
			"mesh":2,
			"name":"right",
			"scale":[
				3,
				3,
				3
			]
		},
		{
			"mesh":3,
			"name":"right_2",
			"scale":[
				3,
				3,
				3
			]
		}
	],
	"materials":[
		{
			"doubleSided":true,
			"name":"Material.001",
			"pbrMetallicRoughness":{
				"baseColorTexture":{
					"index":0
				},
				"metallicFactor":0,
				"roughnessFactor":0.5
			}
		},
		{
			"doubleSided":true,
			"name":"Material.002",
			"pbrMetallicRoughness":{
				"baseColorTexture":{
					"index":1
				},
				"metallicFactor":0,
				"roughnessFactor":0.5
			}
		},
		{
			"doubleSided":true,
			"name":"Material.003",
			"pbrMetallicRoughness":{
				"baseColorTexture":{
					"index":2
				},
				"metallicFactor":0,
				"roughnessFactor":0.5
			}
		},
		{
			"doubleSided":true,
			"name":"Material.004",
			"pbrMetallicRoughness":{
				"baseColorTexture":{
					"index":3
				},
				"metallicFactor":0,
				"roughnessFactor":0.5
			}
		}
	],
	"meshes":[
		{
			"name":"left",
			"primitives":[
				{
					"attributes":{
						"POSITION":0,
						"NORMAL":1,
						"TEXCOORD_0":2
					},
					"indices":3,
					"material":0
				}
			]
		},
		{
			"name":"left_2",
			"primitives":[
				{
					"attributes":{
						"POSITION":4,
						"NORMAL":5,
						"TEXCOORD_0":6
					},
					"indices":7,
					"material":1
				}
			]
		},
		{
			"name":"right",
			"primitives":[
				{
					"attributes":{
						"POSITION":8,
						"NORMAL":9,
						"TEXCOORD_0":10
					},
					"indices":11,
					"material":2
				}
			]
		},
		{
			"name":"right_2",
			"primitives":[
				{
					"attributes":{
						"POSITION":12,
						"NORMAL":13,
						"TEXCOORD_0":14
					},
					"indices":15,
					"material":3
				}
			]
		}
	],
	"textures":[
		{
			"sampler":0,
			"source":0
		},
		{
			"sampler":0,
			"source":0
		},
		{
			"sampler":0,
			"source":1
		},
		{
			"sampler":0,
			"source":1
		}
	],
	"images":[
		{
			"mimeType":"image/png",
			"name":"applied_texture_l",
			"uri":"applied_texture_l.png"
		},
		{
			"mimeType":"image/png",
			"name":"applied_texture_r",
			"uri":"applied_texture_r.png"
		}
	],
	"accessors":[
		{
			"bufferView":0,
			"componentType":5126,
			"count":1860,
			"max":[
				1.058434247970581,
				27.11313819885254,
				4.820673942565918
			],
			"min":[
				-4.092264652252197,
				20.79678726196289,
				-1.1698296070098877
			],
			"type":"VEC3"
		},
		{
			"bufferView":1,
			"componentType":5126,
			"count":1860,
			"type":"VEC3"
		},
		{
			"bufferView":2,
			"componentType":5126,
			"count":1860,
			"type":"VEC2"
		},
		{
			"bufferView":3,
			"componentType":5123,
			"count":9732,
			"type":"SCALAR"
		},
		{
			"bufferView":4,
			"componentType":5126,
			"count":2435,
			"max":[
				0.28588488698005676,
				26.919063568115234,
				4.4590983390808105
			],
			"min":[
				-3.9506070613861084,
				22.036027908325195,
				-0.12674739956855774
			],
			"type":"VEC3"
		},
		{
			"bufferView":5,
			"componentType":5126,
			"count":2435,
			"type":"VEC3"
		},
		{
			"bufferView":6,
			"componentType":5126,
			"count":2435,
			"type":"VEC2"
		},
		{
			"bufferView":7,
			"componentType":5123,
			"count":10401,
			"type":"SCALAR"
		},
		{
			"bufferView":8,
			"componentType":5126,
			"count":1860,
			"max":[
				1.0585241317749023,
				-20.796838760375977,
				4.8207011222839355
			],
			"min":[
				-4.092248439788818,
				-27.113332748413086,
				-1.1698120832443237
			],
			"type":"VEC3"
		},
		{
			"bufferView":9,
			"componentType":5126,
			"count":1860,
			"type":"VEC3"
		},
		{
			"bufferView":10,
			"componentType":5126,
			"count":1860,
			"type":"VEC2"
		},
		{
			"bufferView":11,
			"componentType":5123,
			"count":9732,
			"type":"SCALAR"
		},
		{
			"bufferView":12,
			"componentType":5126,
			"count":2413,
			"max":[
				0.28595536947250366,
				-22.036142349243164,
				4.4591264724731445
			],
			"min":[
				-3.9505913257598877,
				-26.919239044189453,
				-0.12672331929206848
			],
			"type":"VEC3"
		},
		{
			"bufferView":13,
			"componentType":5126,
			"count":2413,
			"type":"VEC3"
		},
		{
			"bufferView":14,
			"componentType":5126,
			"count":2413,
			"type":"VEC2"
		},
		{
			"bufferView":15,
			"componentType":5123,
			"count":10401,
			"type":"SCALAR"
		}
	],
	"bufferViews":[
		{
			"buffer":0,
			"byteLength":22320,
			"byteOffset":0,
			"target":34962
		},
		{
			"buffer":0,
			"byteLength":22320,
			"byteOffset":22320,
			"target":34962
		},
		{
			"buffer":0,
			"byteLength":14880,
			"byteOffset":44640,
			"target":34962
		},
		{
			"buffer":0,
			"byteLength":19464,
			"byteOffset":59520,
			"target":34963
		},
		{
			"buffer":0,
			"byteLength":29220,
			"byteOffset":78984,
			"target":34962
		},
		{
			"buffer":0,
			"byteLength":29220,
			"byteOffset":108204,
			"target":34962
		},
		{
			"buffer":0,
			"byteLength":19480,
			"byteOffset":137424,
			"target":34962
		},
		{
			"buffer":0,
			"byteLength":20802,
			"byteOffset":156904,
			"target":34963
		},
		{
			"buffer":0,
			"byteLength":22320,
			"byteOffset":177708,
			"target":34962
		},
		{
			"buffer":0,
			"byteLength":22320,
			"byteOffset":200028,
			"target":34962
		},
		{
			"buffer":0,
			"byteLength":14880,
			"byteOffset":222348,
			"target":34962
		},
		{
			"buffer":0,
			"byteLength":19464,
			"byteOffset":237228,
			"target":34963
		},
		{
			"buffer":0,
			"byteLength":28956,
			"byteOffset":256692,
			"target":34962
		},
		{
			"buffer":0,
			"byteLength":28956,
			"byteOffset":285648,
			"target":34962
		},
		{
			"buffer":0,
			"byteLength":19304,
			"byteOffset":314604,
			"target":34962
		},
		{
			"buffer":0,
			"byteLength":20802,
			"byteOffset":333908,
			"target":34963
		}
	],
	"samplers":[
		{
			"magFilter":9729,
			"minFilter":9987
		}
	],
	"buffers":[
		{
			"byteLength":354712,
			"uri":"v_glove_bloodhound.bin"
		}
	]
}
