{
	"asset":{
		"generator":"Khronos glTF Blender I/O v4.5.49",
		"version":"2.0"
	},
	"scene":0,
	"scenes":[
		{
			"name":"Scene",
			"nodes":[
				0
			]
		}
	],
	"nodes":[
		{
			"mesh":0,
			"name":"legacy",
			"rotation":[
				-0.49999988079071045,
				-0.49999988079071045,
				-0.5000001192092896,
				0.5000002384185791
			],
			"scale":[
				2.999999761581421,
				2.999999761581421,
				2.999999761581421
			]
		}
	],
	"materials":[
		{
			"doubleSided":true,
			"name":"AppliedTextureMaterial",
			"pbrMetallicRoughness":{
				"baseColorTexture":{
					"index":0
				},
				"metallicFactor":0,
				"roughnessFactor":0.5
			}
		}
	],
	"meshes":[
		{
			"name":"legacy.010",
			"primitives":[
				{
					"attributes":{
						"POSITION":0,
						"NORMAL":1,
						"TEXCOORD_0":2,
						"TEXCOORD_1":3
					},
					"indices":4,
					"material":0
				}
			]
		}
	],
	"textures":[
		{
			"sampler":0,
			"source":0
		}
	],
	"images":[
		{
			"mimeType":"image/png",
			"name":"applied_texture",
			"uri":"applied_texture.png"
		}
	],
	"accessors":[
		{
			"bufferView":0,
			"componentType":5126,
			"count":8092,
			"max":[
				6.668460845947266,
				1.1812734603881836,
				5.065277099609375
			],
			"min":[
				-6.668461799621582,
				-1.181273341178894,
				-5.065277099609375
			],
			"type":"VEC3"
		},
		{
			"bufferView":1,
			"componentType":5126,
			"count":8092,
			"type":"VEC3"
		},
		{
			"bufferView":2,
			"componentType":5126,
			"count":8092,
			"type":"VEC2"
		},
		{
			"bufferView":3,
			"componentType":5126,
			"count":8092,
			"type":"VEC2"
		},
		{
			"bufferView":4,
			"componentType":5123,
			"count":26835,
			"type":"SCALAR"
		}
	],
	"bufferViews":[
		{
			"buffer":0,
			"byteLength":97104,
			"byteOffset":0,
			"target":34962
		},
		{
			"buffer":0,
			"byteLength":97104,
			"byteOffset":97104,
			"target":34962
		},
		{
			"buffer":0,
			"byteLength":64736,
			"byteOffset":194208,
			"target":34962
		},
		{
			"buffer":0,
			"byteLength":64736,
			"byteOffset":258944,
			"target":34962
		},
		{
			"buffer":0,
			"byteLength":53670,
			"byteOffset":323680,
			"target":34963
		}
	],
	"samplers":[
		{
			"magFilter":9729,
			"minFilter":9987
		}
	],
	"buffers":[
		{
			"byteLength":377352,
			"uri":"weapon_pist_tec9.bin"
		}
	]
}
