{
	"asset":{
		"generator":"Khronos glTF Blender I/O v4.5.49",
		"version":"2.0"
	},
	"scene":0,
	"scenes":[
		{
			"name":"Scene",
			"nodes":[
				0
			]
		}
	],
	"nodes":[
		{
			"mesh":0,
			"name":"legacy",
			"rotation":[
				-0.4999999403953552,
				-0.4999999403953552,
				-0.5000001788139343,
				0.5000000596046448
			],
			"scale":[
				3.000000476837158,
				3.000000476837158,
				3.000000476837158
			]
		}
	],
	"materials":[
		{
			"doubleSided":true,
			"name":"AppliedTextureMaterial",
			"pbrMetallicRoughness":{
				"baseColorTexture":{
					"index":0
				},
				"metallicFactor":0,
				"roughnessFactor":0.5
			}
		}
	],
	"meshes":[
		{
			"name":"legacy.005",
			"primitives":[
				{
					"attributes":{
						"POSITION":0,
						"NORMAL":1,
						"TEXCOORD_0":2,
						"TEXCOORD_1":3
					},
					"indices":4,
					"material":0
				}
			]
		}
	],
	"textures":[
		{
			"sampler":0,
			"source":0
		}
	],
	"images":[
		{
			"mimeType":"image/png",
			"name":"applied_texture",
			"uri":"applied_texture.png"
		}
	],
	"accessors":[
		{
			"bufferView":0,
			"componentType":5126,
			"count":11490,
			"max":[
				4.018327713012695,
				0.6877797842025757,
				2.807692527770996
			],
			"min":[
				-4.0183281898498535,
				-0.6877799034118652,
				-2.807692289352417
			],
			"type":"VEC3"
		},
		{
			"bufferView":1,
			"componentType":5126,
			"count":11490,
			"type":"VEC3"
		},
		{
			"bufferView":2,
			"componentType":5126,
			"count":11490,
			"type":"VEC2"
		},
		{
			"bufferView":3,
			"componentType":5126,
			"count":11490,
			"type":"VEC2"
		},
		{
			"bufferView":4,
			"componentType":5123,
			"count":33648,
			"type":"SCALAR"
		}
	],
	"bufferViews":[
		{
			"buffer":0,
			"byteLength":137880,
			"byteOffset":0,
			"target":34962
		},
		{
			"buffer":0,
			"byteLength":137880,
			"byteOffset":137880,
			"target":34962
		},
		{
			"buffer":0,
			"byteLength":91920,
			"byteOffset":275760,
			"target":34962
		},
		{
			"buffer":0,
			"byteLength":91920,
			"byteOffset":367680,
			"target":34962
		},
		{
			"buffer":0,
			"byteLength":67296,
			"byteOffset":459600,
			"target":34963
		}
	],
	"samplers":[
		{
			"magFilter":9729,
			"minFilter":9987
		}
	],
	"buffers":[
		{
			"byteLength":526896,
			"uri":"weapon_pist_fiveseven.bin"
		}
	]
}
