{
	"asset":{
		"generator":"Khronos glTF Blender I/O v4.5.49",
		"version":"2.0"
	},
	"scene":0,
	"scenes":[
		{
			"name":"Scene",
			"nodes":[
				0
			]
		}
	],
	"nodes":[
		{
			"mesh":0,
			"name":"legacy",
			"rotation":[
				-0.4999999403953552,
				-0.4999999403953552,
				-0.5000001788139343,
				0.5000000596046448
			],
			"scale":[
				3.000000476837158,
				3.000000476837158,
				3.000000476837158
			]
		}
	],
	"materials":[
		{
			"doubleSided":true,
			"name":"AppliedTextureMaterial",
			"pbrMetallicRoughness":{
				"baseColorTexture":{
					"index":0
				},
				"metallicFactor":0,
				"roughnessFactor":0.5
			}
		}
	],
	"meshes":[
		{
			"name":"legacy.019",
			"primitives":[
				{
					"attributes":{
						"POSITION":0,
						"NORMAL":1,
						"TEXCOORD_0":2,
						"TEXCOORD_1":3
					},
					"indices":4,
					"material":0
				}
			]
		}
	],
	"textures":[
		{
			"sampler":0,
			"source":0
		}
	],
	"images":[
		{
			"mimeType":"image/png",
			"name":"applied_texture",
			"uri":"applied_texture.png"
		}
	],
	"accessors":[
		{
			"bufferView":0,
			"componentType":5126,
			"count":10994,
			"max":[
				13.178413391113281,
				1.2975223064422607,
				5.323851585388184
			],
			"min":[
				-13.178413391113281,
				-1.2975225448608398,
				-5.323851585388184
			],
			"type":"VEC3"
		},
		{
			"bufferView":1,
			"componentType":5126,
			"count":10994,
			"type":"VEC3"
		},
		{
			"bufferView":2,
			"componentType":5126,
			"count":10994,
			"type":"VEC2"
		},
		{
			"bufferView":3,
			"componentType":5126,
			"count":10994,
			"type":"VEC2"
		},
		{
			"bufferView":4,
			"componentType":5123,
			"count":28395,
			"type":"SCALAR"
		}
	],
	"bufferViews":[
		{
			"buffer":0,
			"byteLength":131928,
			"byteOffset":0,
			"target":34962
		},
		{
			"buffer":0,
			"byteLength":131928,
			"byteOffset":131928,
			"target":34962
		},
		{
			"buffer":0,
			"byteLength":87952,
			"byteOffset":263856,
			"target":34962
		},
		{
			"buffer":0,
			"byteLength":87952,
			"byteOffset":351808,
			"target":34962
		},
		{
			"buffer":0,
			"byteLength":56790,
			"byteOffset":439760,
			"target":34963
		}
	],
	"samplers":[
		{
			"magFilter":9729,
			"minFilter":9987
		}
	],
	"buffers":[
		{
			"byteLength":496552,
			"uri":"weapon_shot_mag7.bin"
		}
	]
}
