{
	"asset":{
		"generator":"Khronos glTF Blender I/O v4.5.49",
		"version":"2.0"
	},
	"scene":0,
	"scenes":[
		{
			"name":"Scene",
			"nodes":[
				0
			]
		}
	],
	"nodes":[
		{
			"mesh":0,
			"name":"legacy",
			"rotation":[
				-0.4999999403953552,
				-0.4999999403953552,
				-0.5000001788139343,
				0.5000000596046448
			],
			"scale":[
				3.000000476837158,
				3.000000476837158,
				3.000000476837158
			]
		}
	],
	"materials":[
		{
			"doubleSided":true,
			"name":"AppliedTextureMaterial",
			"pbrMetallicRoughness":{
				"baseColorTexture":{
					"index":0
				},
				"metallicFactor":0,
				"roughnessFactor":0.5
			}
		}
	],
	"meshes":[
		{
			"name":"legacy.024",
			"primitives":[
				{
					"attributes":{
						"POSITION":0,
						"NORMAL":1,
						"TEXCOORD_0":2,
						"TEXCOORD_1":3
					},
					"indices":4,
					"material":0
				}
			]
		}
	],
	"textures":[
		{
			"sampler":0,
			"source":0
		}
	],
	"images":[
		{
			"mimeType":"image/png",
			"name":"applied_texture",
			"uri":"applied_texture.png"
		}
	],
	"accessors":[
		{
			"bufferView":0,
			"componentType":5126,
			"count":8348,
			"max":[
				6.417263031005859,
				1.115745186805725,
				5.487749099731445
			],
			"min":[
				-6.417262554168701,
				-1.1157450675964355,
				-5.487749099731445
			],
			"type":"VEC3"
		},
		{
			"bufferView":1,
			"componentType":5126,
			"count":8348,
			"type":"VEC3"
		},
		{
			"bufferView":2,
			"componentType":5126,
			"count":8348,
			"type":"VEC2"
		},
		{
			"bufferView":3,
			"componentType":5126,
			"count":8348,
			"type":"VEC2"
		},
		{
			"bufferView":4,
			"componentType":5123,
			"count":26277,
			"type":"SCALAR"
		}
	],
	"bufferViews":[
		{
			"buffer":0,
			"byteLength":100176,
			"byteOffset":0,
			"target":34962
		},
		{
			"buffer":0,
			"byteLength":100176,
			"byteOffset":100176,
			"target":34962
		},
		{
			"buffer":0,
			"byteLength":66784,
			"byteOffset":200352,
			"target":34962
		},
		{
			"buffer":0,
			"byteLength":66784,
			"byteOffset":267136,
			"target":34962
		},
		{
			"buffer":0,
			"byteLength":52554,
			"byteOffset":333920,
			"target":34963
		}
	],
	"samplers":[
		{
			"magFilter":9729,
			"minFilter":9987
		}
	],
	"buffers":[
		{
			"byteLength":386476,
			"uri":"weapon_smg_mac10.bin"
		}
	]
}
