{
	"asset":{
		"generator":"Khronos glTF Blender I/O v4.5.49",
		"version":"2.0"
	},
	"scene":0,
	"scenes":[
		{
			"name":"Scene",
			"nodes":[
				0
			]
		}
	],
	"nodes":[
		{
			"mesh":0,
			"name":"legacy",
			"rotation":[
				-0.49999988079071045,
				-0.49999988079071045,
				-0.5000001192092896,
				0.5000002384185791
			],
			"scale":[
				2.999999761581421,
				2.999999761581421,
				2.999999761581421
			]
		}
	],
	"materials":[
		{
			"doubleSided":true,
			"name":"AppliedTextureMaterial",
			"pbrMetallicRoughness":{
				"baseColorTexture":{
					"index":0
				},
				"metallicFactor":0,
				"roughnessFactor":0.5
			}
		}
	],
	"meshes":[
		{
			"name":"legacy.009",
			"primitives":[
				{
					"attributes":{
						"POSITION":0,
						"NORMAL":1,
						"TEXCOORD_0":2,
						"TEXCOORD_1":3
					},
					"indices":4,
					"material":0
				}
			]
		}
	],
	"textures":[
		{
			"sampler":0,
			"source":0
		}
	],
	"images":[
		{
			"mimeType":"image/png",
			"name":"applied_texture",
			"uri":"applied_texture.png"
		}
	],
	"accessors":[
		{
			"bufferView":0,
			"componentType":5126,
			"count":14075,
			"max":[
				12.740790367126465,
				2.769857168197632,
				16.070236206054688
			],
			"min":[
				-12.740790367126465,
				-2.769857168197632,
				-16.070234298706055
			],
			"type":"VEC3"
		},
		{
			"bufferView":1,
			"componentType":5126,
			"count":14075,
			"type":"VEC3"
		},
		{
			"bufferView":2,
			"componentType":5126,
			"count":14075,
			"type":"VEC2"
		},
		{
			"bufferView":3,
			"componentType":5126,
			"count":14075,
			"type":"VEC2"
		},
		{
			"bufferView":4,
			"componentType":5123,
			"count":43317,
			"type":"SCALAR"
		}
	],
	"bufferViews":[
		{
			"buffer":0,
			"byteLength":168900,
			"byteOffset":0,
			"target":34962
		},
		{
			"buffer":0,
			"byteLength":168900,
			"byteOffset":168900,
			"target":34962
		},
		{
			"buffer":0,
			"byteLength":112600,
			"byteOffset":337800,
			"target":34962
		},
		{
			"buffer":0,
			"byteLength":112600,
			"byteOffset":450400,
			"target":34962
		},
		{
			"buffer":0,
			"byteLength":86634,
			"byteOffset":563000,
			"target":34963
		}
	],
	"samplers":[
		{
			"magFilter":9729,
			"minFilter":9987
		}
	],
	"buffers":[
		{
			"byteLength":649636,
			"uri":"weapon_pist_revolver.bin"
		}
	]
}
