{
	"asset":{
		"generator":"Khronos glTF Blender I/O v4.5.49",
		"version":"2.0"
	},
	"scene":0,
	"scenes":[
		{
			"name":"Scene",
			"nodes":[
				0
			]
		}
	],
	"nodes":[
		{
			"mesh":0,
			"name":"legacy",
			"rotation":[
				-0.4999999403953552,
				-0.4999999403953552,
				-0.5000001788139343,
				0.5000000596046448
			],
			"scale":[
				3.000000476837158,
				3.000000476837158,
				3.000000476837158
			]
		}
	],
	"materials":[
		{
			"doubleSided":true,
			"name":"AppliedTextureMaterial",
			"pbrMetallicRoughness":{
				"baseColorTexture":{
					"index":0
				},
				"metallicFactor":0,
				"roughnessFactor":0.5
			}
		}
	],
	"meshes":[
		{
			"name":"legacy.018",
			"primitives":[
				{
					"attributes":{
						"POSITION":0,
						"NORMAL":1,
						"TEXCOORD_0":2,
						"TEXCOORD_1":3
					},
					"indices":4,
					"material":0
				}
			]
		}
	],
	"textures":[
		{
			"sampler":0,
			"source":0
		}
	],
	"images":[
		{
			"mimeType":"image/png",
			"name":"applied_texture",
			"uri":"applied_texture.png"
		}
	],
	"accessors":[
		{
			"bufferView":0,
			"componentType":5126,
			"count":15672,
			"max":[
				18.171167373657227,
				1.6686792373657227,
				6.327948093414307
			],
			"min":[
				-18.171167373657227,
				-1.6686792373657227,
				-6.327948093414307
			],
			"type":"VEC3"
		},
		{
			"bufferView":1,
			"componentType":5126,
			"count":15672,
			"type":"VEC3"
		},
		{
			"bufferView":2,
			"componentType":5126,
			"count":15672,
			"type":"VEC2"
		},
		{
			"bufferView":3,
			"componentType":5126,
			"count":15672,
			"type":"VEC2"
		},
		{
			"bufferView":4,
			"componentType":5123,
			"count":39696,
			"type":"SCALAR"
		}
	],
	"bufferViews":[
		{
			"buffer":0,
			"byteLength":188064,
			"byteOffset":0,
			"target":34962
		},
		{
			"buffer":0,
			"byteLength":188064,
			"byteOffset":188064,
			"target":34962
		},
		{
			"buffer":0,
			"byteLength":125376,
			"byteOffset":376128,
			"target":34962
		},
		{
			"buffer":0,
			"byteLength":125376,
			"byteOffset":501504,
			"target":34962
		},
		{
			"buffer":0,
			"byteLength":79392,
			"byteOffset":626880,
			"target":34963
		}
	],
	"samplers":[
		{
			"magFilter":9729,
			"minFilter":9987
		}
	],
	"buffers":[
		{
			"byteLength":706272,
			"uri":"weapon_rif_sg556.bin"
		}
	]
}
