{
	"asset":{
		"generator":"Khronos glTF Blender I/O v4.5.49",
		"version":"2.0"
	},
	"scene":0,
	"scenes":[
		{
			"name":"Scene",
			"nodes":[
				0
			]
		}
	],
	"nodes":[
		{
			"mesh":0,
			"name":"legacy",
			"scale":[
				3,
				3,
				3
			]
		}
	],
	"materials":[
		{
			"doubleSided":true,
			"name":"Material.001",
			"pbrMetallicRoughness":{
				"baseColorTexture":{
					"index":0
				},
				"metallicFactor":0,
				"roughnessFactor":0.5
			}
		},
		{
			"doubleSided":true,
			"name":"Material.003",
			"pbrMetallicRoughness":{
				"baseColorTexture":{
					"index":1
				},
				"metallicFactor":0,
				"roughnessFactor":0.5
			}
		},
		{
			"doubleSided":true,
			"name":"Material.002",
			"pbrMetallicRoughness":{
				"baseColorTexture":{
					"index":2
				},
				"metallicFactor":0,
				"roughnessFactor":0.5
			}
		}
	],
	"meshes":[
		{
			"name":"legacy",
			"primitives":[
				{
					"attributes":{
						"POSITION":0,
						"NORMAL":1,
						"TEXCOORD_0":2,
						"TEXCOORD_1":3
					},
					"indices":4,
					"material":0
				},
				{
					"attributes":{
						"POSITION":5,
						"NORMAL":6,
						"TEXCOORD_0":7,
						"TEXCOORD_1":8
					},
					"indices":9,
					"material":1
				},
				{
					"attributes":{
						"POSITION":10,
						"NORMAL":11,
						"TEXCOORD_0":12,
						"TEXCOORD_1":13
					},
					"indices":14,
					"material":2
				}
			]
		}
	],
	"textures":[
		{
			"sampler":0,
			"source":0
		},
		{
			"sampler":0,
			"source":1
		},
		{
			"sampler":0,
			"source":2
		}
	],
	"images":[
		{
			"mimeType":"image/png",
			"name":"applied_texture",
			"uri":"applied_texture.png"
		},
		{
			"mimeType":"image/png",
			"name":"ssg_lens",
			"uri":"ssg_lens.png"
		},
		{
			"mimeType":"image/png",
			"name":"ssg_scope",
			"uri":"ssg_scope.png"
		}
	],
	"accessors":[
		{
			"bufferView":0,
			"componentType":5126,
			"count":7985,
			"max":[
				27.233295440673828,
				1.1051361560821533,
				-0.8422918319702148
			],
			"min":[
				-21.948944091796875,
				-2.5000877380371094,
				-9.457149505615234
			],
			"type":"VEC3"
		},
		{
			"bufferView":1,
			"componentType":5126,
			"count":7985,
			"type":"VEC3"
		},
		{
			"bufferView":2,
			"componentType":5126,
			"count":7985,
			"type":"VEC2"
		},
		{
			"bufferView":3,
			"componentType":5126,
			"count":7985,
			"type":"VEC2"
		},
		{
			"bufferView":4,
			"componentType":5123,
			"count":20553,
			"type":"SCALAR"
		},
		{
			"bufferView":5,
			"componentType":5126,
			"count":121,
			"max":[
				6.249721527099609,
				0.7981159687042236,
				1.6833782196044922
			],
			"min":[
				-6.799337863922119,
				-1.088297724723816,
				-0.2030353546142578
			],
			"type":"VEC3"
		},
		{
			"bufferView":6,
			"componentType":5126,
			"count":121,
			"type":"VEC3"
		},
		{
			"bufferView":7,
			"componentType":5126,
			"count":121,
			"type":"VEC2"
		},
		{
			"bufferView":8,
			"componentType":5126,
			"count":121,
			"type":"VEC2"
		},
		{
			"bufferView":9,
			"componentType":5123,
			"count":432,
			"type":"SCALAR"
		},
		{
			"bufferView":10,
			"componentType":5126,
			"count":33557,
			"max":[
				6.978102684020996,
				1.3226295709609985,
				2.378490924835205
			],
			"min":[
				-6.991119384765625,
				-1.6128422021865845,
				-0.9324698448181152
			],
			"type":"VEC3"
		},
		{
			"bufferView":11,
			"componentType":5126,
			"count":33557,
			"type":"VEC3"
		},
		{
			"bufferView":12,
			"componentType":5126,
			"count":33557,
			"type":"VEC2"
		},
		{
			"bufferView":13,
			"componentType":5126,
			"count":33557,
			"type":"VEC2"
		},
		{
			"bufferView":14,
			"componentType":5123,
			"count":94788,
			"type":"SCALAR"
		}
	],
	"bufferViews":[
		{
			"buffer":0,
			"byteLength":95820,
			"byteOffset":0,
			"target":34962
		},
		{
			"buffer":0,
			"byteLength":95820,
			"byteOffset":95820,
			"target":34962
		},
		{
			"buffer":0,
			"byteLength":63880,
			"byteOffset":191640,
			"target":34962
		},
		{
			"buffer":0,
			"byteLength":63880,
			"byteOffset":255520,
			"target":34962
		},
		{
			"buffer":0,
			"byteLength":41106,
			"byteOffset":319400,
			"target":34963
		},
		{
			"buffer":0,
			"byteLength":1452,
			"byteOffset":360508,
			"target":34962
		},
		{
			"buffer":0,
			"byteLength":1452,
			"byteOffset":361960,
			"target":34962
		},
		{
			"buffer":0,
			"byteLength":968,
			"byteOffset":363412,
			"target":34962
		},
		{
			"buffer":0,
			"byteLength":968,
			"byteOffset":364380,
			"target":34962
		},
		{
			"buffer":0,
			"byteLength":864,
			"byteOffset":365348,
			"target":34963
		},
		{
			"buffer":0,
			"byteLength":402684,
			"byteOffset":366212,
			"target":34962
		},
		{
			"buffer":0,
			"byteLength":402684,
			"byteOffset":768896,
			"target":34962
		},
		{
			"buffer":0,
			"byteLength":268456,
			"byteOffset":1171580,
			"target":34962
		},
		{
			"buffer":0,
			"byteLength":268456,
			"byteOffset":1440036,
			"target":34962
		},
		{
			"buffer":0,
			"byteLength":189576,
			"byteOffset":1708492,
			"target":34963
		}
	],
	"samplers":[
		{
			"magFilter":9729,
			"minFilter":9987
		}
	],
	"buffers":[
		{
			"byteLength":1898068,
			"uri":"weapon_snip_ssg08.bin"
		}
	]
}
