{
	"asset":{
		"generator":"Khronos glTF Blender I/O v4.5.49",
		"version":"2.0"
	},
	"scene":0,
	"scenes":[
		{
			"name":"Scene",
			"nodes":[
				0
			]
		}
	],
	"nodes":[
		{
			"mesh":0,
			"name":"legacy",
			"rotation":[
				-0.4999999403953552,
				-0.4999999403953552,
				-0.5000001788139343,
				0.5000000596046448
			],
			"scale":[
				3.000000476837158,
				3.000000476837158,
				3.000000476837158
			]
		}
	],
	"materials":[
		{
			"doubleSided":true,
			"name":"AppliedTextureMaterial",
			"pbrMetallicRoughness":{
				"baseColorTexture":{
					"index":0
				},
				"metallicFactor":0,
				"roughnessFactor":0.5
			}
		}
	],
	"meshes":[
		{
			"name":"legacy.013",
			"primitives":[
				{
					"attributes":{
						"POSITION":0,
						"NORMAL":1,
						"TEXCOORD_0":2,
						"TEXCOORD_1":3
					},
					"indices":4,
					"material":0
				}
			]
		}
	],
	"textures":[
		{
			"sampler":0,
			"source":0
		}
	],
	"images":[
		{
			"mimeType":"image/png",
			"name":"applied_texture",
			"uri":"applied_texture.png"
		}
	],
	"accessors":[
		{
			"bufferView":0,
			"componentType":5126,
			"count":13508,
			"max":[
				15.532991409301758,
				1.9013437032699585,
				5.427309036254883
			],
			"min":[
				-15.532991409301758,
				-1.9013437032699585,
				-5.427309036254883
			],
			"type":"VEC3"
		},
		{
			"bufferView":1,
			"componentType":5126,
			"count":13508,
			"type":"VEC3"
		},
		{
			"bufferView":2,
			"componentType":5126,
			"count":13508,
			"type":"VEC2"
		},
		{
			"bufferView":3,
			"componentType":5126,
			"count":13508,
			"type":"VEC2"
		},
		{
			"bufferView":4,
			"componentType":5123,
			"count":48822,
			"type":"SCALAR"
		}
	],
	"bufferViews":[
		{
			"buffer":0,
			"byteLength":162096,
			"byteOffset":0,
			"target":34962
		},
		{
			"buffer":0,
			"byteLength":162096,
			"byteOffset":162096,
			"target":34962
		},
		{
			"buffer":0,
			"byteLength":108064,
			"byteOffset":324192,
			"target":34962
		},
		{
			"buffer":0,
			"byteLength":108064,
			"byteOffset":432256,
			"target":34962
		},
		{
			"buffer":0,
			"byteLength":97644,
			"byteOffset":540320,
			"target":34963
		}
	],
	"samplers":[
		{
			"magFilter":9729,
			"minFilter":9987
		}
	],
	"buffers":[
		{
			"byteLength":637964,
			"uri":"weapon_rif_aug.bin"
		}
	]
}
