{
	"asset":{
		"generator":"Khronos glTF Blender I/O v4.5.49",
		"version":"2.0"
	},
	"scene":0,
	"scenes":[
		{
			"name":"Scene",
			"nodes":[
				0
			]
		}
	],
	"nodes":[
		{
			"mesh":0,
			"name":"legacy",
			"rotation":[
				-0.4999999403953552,
				-0.4999999403953552,
				-0.5000001788139343,
				0.5000000596046448
			],
			"scale":[
				3.000000476837158,
				3.000000476837158,
				3.000000476837158
			]
		}
	],
	"materials":[
		{
			"doubleSided":true,
			"name":"AppliedTextureMaterial",
			"pbrMetallicRoughness":{
				"baseColorTexture":{
					"index":0
				},
				"metallicFactor":0,
				"roughnessFactor":0.5
			}
		}
	],
	"meshes":[
		{
			"name":"legacy.032",
			"primitives":[
				{
					"attributes":{
						"POSITION":0,
						"NORMAL":1,
						"TEXCOORD_0":2,
						"TEXCOORD_1":3
					},
					"indices":4,
					"material":0
				}
			]
		}
	],
	"textures":[
		{
			"sampler":0,
			"source":0
		}
	],
	"images":[
		{
			"mimeType":"image/png",
			"name":"applied_texture",
			"uri":"applied_texture.png"
		}
	],
	"accessors":[
		{
			"bufferView":0,
			"componentType":5126,
			"count":14690,
			"max":[
				22.0257511138916,
				1.3225480318069458,
				5.611284255981445
			],
			"min":[
				-22.02574920654297,
				-1.3225480318069458,
				-5.6112847328186035
			],
			"type":"VEC3"
		},
		{
			"bufferView":1,
			"componentType":5126,
			"count":14690,
			"type":"VEC3"
		},
		{
			"bufferView":2,
			"componentType":5126,
			"count":14690,
			"type":"VEC2"
		},
		{
			"bufferView":3,
			"componentType":5126,
			"count":14690,
			"type":"VEC2"
		},
		{
			"bufferView":4,
			"componentType":5123,
			"count":36636,
			"type":"SCALAR"
		}
	],
	"bufferViews":[
		{
			"buffer":0,
			"byteLength":176280,
			"byteOffset":0,
			"target":34962
		},
		{
			"buffer":0,
			"byteLength":176280,
			"byteOffset":176280,
			"target":34962
		},
		{
			"buffer":0,
			"byteLength":117520,
			"byteOffset":352560,
			"target":34962
		},
		{
			"buffer":0,
			"byteLength":117520,
			"byteOffset":470080,
			"target":34962
		},
		{
			"buffer":0,
			"byteLength":73272,
			"byteOffset":587600,
			"target":34963
		}
	],
	"samplers":[
		{
			"magFilter":9729,
			"minFilter":9987
		}
	],
	"buffers":[
		{
			"byteLength":660872,
			"uri":"weapon_snip_scar20.bin"
		}
	]
}
