{
	"asset":{
		"generator":"Khronos glTF Blender I/O v4.5.49",
		"version":"2.0"
	},
	"scene":0,
	"scenes":[
		{
			"name":"Scene",
			"nodes":[
				0
			]
		}
	],
	"nodes":[
		{
			"mesh":0,
			"name":"legacy",
			"rotation":[
				-0.4999999403953552,
				-0.4999999403953552,
				-0.5000001788139343,
				0.5000000596046448
			],
			"scale":[
				3.000000476837158,
				3.000000476837158,
				3.000000476837158
			]
		}
	],
	"materials":[
		{
			"doubleSided":true,
			"name":"AppliedTextureMaterial",
			"pbrMetallicRoughness":{
				"baseColorTexture":{
					"index":0
				},
				"metallicFactor":0,
				"roughnessFactor":0.5
			}
		}
	],
	"meshes":[
		{
			"name":"legacy.014",
			"primitives":[
				{
					"attributes":{
						"POSITION":0,
						"NORMAL":1,
						"TEXCOORD_0":2,
						"TEXCOORD_1":3
					},
					"indices":4,
					"material":0
				}
			]
		}
	],
	"textures":[
		{
			"sampler":0,
			"source":0
		}
	],
	"images":[
		{
			"mimeType":"image/png",
			"name":"applied_texture",
			"uri":"applied_texture.png"
		}
	],
	"accessors":[
		{
			"bufferView":0,
			"componentType":5126,
			"count":10819,
			"max":[
				17.5870361328125,
				1.4377564191818237,
				6.717217445373535
			],
			"min":[
				-17.5870361328125,
				-1.4377565383911133,
				-6.717217445373535
			],
			"type":"VEC3"
		},
		{
			"bufferView":1,
			"componentType":5126,
			"count":10819,
			"type":"VEC3"
		},
		{
			"bufferView":2,
			"componentType":5126,
			"count":10819,
			"type":"VEC2"
		},
		{
			"bufferView":3,
			"componentType":5126,
			"count":10819,
			"type":"VEC2"
		},
		{
			"bufferView":4,
			"componentType":5123,
			"count":31152,
			"type":"SCALAR"
		}
	],
	"bufferViews":[
		{
			"buffer":0,
			"byteLength":129828,
			"byteOffset":0,
			"target":34962
		},
		{
			"buffer":0,
			"byteLength":129828,
			"byteOffset":129828,
			"target":34962
		},
		{
			"buffer":0,
			"byteLength":86552,
			"byteOffset":259656,
			"target":34962
		},
		{
			"buffer":0,
			"byteLength":86552,
			"byteOffset":346208,
			"target":34962
		},
		{
			"buffer":0,
			"byteLength":62304,
			"byteOffset":432760,
			"target":34963
		}
	],
	"samplers":[
		{
			"magFilter":9729,
			"minFilter":9987
		}
	],
	"buffers":[
		{
			"byteLength":495064,
			"uri":"weapon_rif_famas.bin"
		}
	]
}
