{
	"asset":{
		"generator":"Khronos glTF Blender I/O v4.5.49",
		"version":"2.0"
	},
	"scene":0,
	"scenes":[
		{
			"name":"Scene",
			"nodes":[
				0
			]
		}
	],
	"nodes":[
		{
			"mesh":0,
			"name":"legacy",
			"rotation":[
				-0.4999998211860657,
				-0.4999998211860657,
				-0.5000001788139343,
				0.5000002980232239
			],
			"scale":[
				2.999999761581421,
				2.999999761581421,
				2.999999761581421
			]
		}
	],
	"materials":[
		{
			"doubleSided":true,
			"name":"AppliedTextureMaterial",
			"pbrMetallicRoughness":{
				"baseColorTexture":{
					"index":0
				},
				"metallicFactor":0,
				"roughnessFactor":0.5
			}
		}
	],
	"meshes":[
		{
			"name":"legacy",
			"primitives":[
				{
					"attributes":{
						"POSITION":0,
						"NORMAL":1,
						"TEXCOORD_0":2,
						"TEXCOORD_1":3
					},
					"indices":4,
					"material":0
				}
			]
		}
	],
	"textures":[
		{
			"sampler":0,
			"source":0
		}
	],
	"images":[
		{
			"mimeType":"image/png",
			"name":"applied_texture",
			"uri":"applied_texture.png"
		}
	],
	"accessors":[
		{
			"bufferView":0,
			"componentType":5126,
			"count":21557,
			"max":[
				23.85921859741211,
				4.005344390869141,
				9.569358825683594
			],
			"min":[
				-23.85921859741211,
				-4.005344390869141,
				-9.569358825683594
			],
			"type":"VEC3"
		},
		{
			"bufferView":1,
			"componentType":5126,
			"count":21557,
			"type":"VEC3"
		},
		{
			"bufferView":2,
			"componentType":5126,
			"count":21557,
			"type":"VEC2"
		},
		{
			"bufferView":3,
			"componentType":5126,
			"count":21557,
			"type":"VEC2"
		},
		{
			"bufferView":4,
			"componentType":5123,
			"count":63303,
			"type":"SCALAR"
		}
	],
	"bufferViews":[
		{
			"buffer":0,
			"byteLength":258684,
			"byteOffset":0,
			"target":34962
		},
		{
			"buffer":0,
			"byteLength":258684,
			"byteOffset":258684,
			"target":34962
		},
		{
			"buffer":0,
			"byteLength":172456,
			"byteOffset":517368,
			"target":34962
		},
		{
			"buffer":0,
			"byteLength":172456,
			"byteOffset":689824,
			"target":34962
		},
		{
			"buffer":0,
			"byteLength":126606,
			"byteOffset":862280,
			"target":34963
		}
	],
	"samplers":[
		{
			"magFilter":9729,
			"minFilter":9987
		}
	],
	"buffers":[
		{
			"byteLength":988888,
			"uri":"weapon_mach_m249.bin"
		}
	]
}
