{
	"asset":{
		"generator":"Khronos glTF Blender I/O v4.5.49",
		"version":"2.0"
	},
	"scene":0,
	"scenes":[
		{
			"name":"Scene",
			"nodes":[
				0
			]
		}
	],
	"nodes":[
		{
			"mesh":0,
			"name":"legacy",
			"rotation":[
				-0.4999999403953552,
				-0.4999999403953552,
				-0.5000001788139343,
				0.5000000596046448
			],
			"scale":[
				3.000000476837158,
				3.000000476837158,
				3.000000476837158
			]
		}
	],
	"materials":[
		{
			"doubleSided":true,
			"name":"AppliedTextureMaterial",
			"pbrMetallicRoughness":{
				"baseColorTexture":{
					"index":0
				},
				"metallicFactor":0,
				"roughnessFactor":0.5
			}
		}
	],
	"meshes":[
		{
			"name":"legacy.028",
			"primitives":[
				{
					"attributes":{
						"POSITION":0,
						"NORMAL":1,
						"TEXCOORD_0":2,
						"TEXCOORD_1":3
					},
					"indices":4,
					"material":0
				}
			]
		}
	],
	"textures":[
		{
			"sampler":0,
			"source":0
		}
	],
	"images":[
		{
			"mimeType":"image/png",
			"name":"applied_texture",
			"uri":"applied_texture.png"
		}
	],
	"accessors":[
		{
			"bufferView":0,
			"componentType":5126,
			"count":14456,
			"max":[
				9.818479537963867,
				1.1744897365570068,
				3.9927449226379395
			],
			"min":[
				-9.818479537963867,
				-1.1744897365570068,
				-3.9927446842193604
			],
			"type":"VEC3"
		},
		{
			"bufferView":1,
			"componentType":5126,
			"count":14456,
			"type":"VEC3"
		},
		{
			"bufferView":2,
			"componentType":5126,
			"count":14456,
			"type":"VEC2"
		},
		{
			"bufferView":3,
			"componentType":5126,
			"count":14456,
			"type":"VEC2"
		},
		{
			"bufferView":4,
			"componentType":5123,
			"count":47715,
			"type":"SCALAR"
		}
	],
	"bufferViews":[
		{
			"buffer":0,
			"byteLength":173472,
			"byteOffset":0,
			"target":34962
		},
		{
			"buffer":0,
			"byteLength":173472,
			"byteOffset":173472,
			"target":34962
		},
		{
			"buffer":0,
			"byteLength":115648,
			"byteOffset":346944,
			"target":34962
		},
		{
			"buffer":0,
			"byteLength":115648,
			"byteOffset":462592,
			"target":34962
		},
		{
			"buffer":0,
			"byteLength":95430,
			"byteOffset":578240,
			"target":34963
		}
	],
	"samplers":[
		{
			"magFilter":9729,
			"minFilter":9987
		}
	],
	"buffers":[
		{
			"byteLength":673672,
			"uri":"weapon_smg_p90.bin"
		}
	]
}
