{
	"asset":{
		"generator":"Khronos glTF Blender I/O v4.5.49",
		"version":"2.0"
	},
	"scene":0,
	"scenes":[
		{
			"name":"Scene",
			"nodes":[
				0
			]
		}
	],
	"nodes":[
		{
			"mesh":0,
			"name":"legacy",
			"rotation":[
				-0.49999988079071045,
				-0.49999988079071045,
				-0.5000001788139343,
				0.5000001192092896
			],
			"scale":[
				2.999999761581421,
				2.999999761581421,
				2.999999761581421
			]
		}
	],
	"materials":[
		{
			"doubleSided":true,
			"name":"AppliedTextureMaterial",
			"pbrMetallicRoughness":{
				"baseColorTexture":{
					"index":0
				},
				"metallicFactor":0,
				"roughnessFactor":0.5
			}
		}
	],
	"meshes":[
		{
			"name":"legacy.002",
			"primitives":[
				{
					"attributes":{
						"POSITION":0,
						"NORMAL":1,
						"TEXCOORD_0":2,
						"TEXCOORD_1":3
					},
					"indices":4,
					"material":0
				}
			]
		}
	],
	"textures":[
		{
			"sampler":0,
			"source":0
		}
	],
	"images":[
		{
			"mimeType":"image/png",
			"name":"applied_texture",
			"uri":"applied_texture.png"
		}
	],
	"accessors":[
		{
			"bufferView":0,
			"componentType":5126,
			"count":20377,
			"max":[
				5.393806457519531,
				0.6488090753555298,
				3.399703025817871
			],
			"min":[
				-5.393805503845215,
				-0.6488090753555298,
				-3.399703025817871
			],
			"type":"VEC3"
		},
		{
			"bufferView":1,
			"componentType":5126,
			"count":20377,
			"type":"VEC3"
		},
		{
			"bufferView":2,
			"componentType":5126,
			"count":20377,
			"type":"VEC2"
		},
		{
			"bufferView":3,
			"componentType":5126,
			"count":20377,
			"type":"VEC2"
		},
		{
			"bufferView":4,
			"componentType":5123,
			"count":69843,
			"type":"SCALAR"
		}
	],
	"bufferViews":[
		{
			"buffer":0,
			"byteLength":244524,
			"byteOffset":0,
			"target":34962
		},
		{
			"buffer":0,
			"byteLength":244524,
			"byteOffset":244524,
			"target":34962
		},
		{
			"buffer":0,
			"byteLength":163016,
			"byteOffset":489048,
			"target":34962
		},
		{
			"buffer":0,
			"byteLength":163016,
			"byteOffset":652064,
			"target":34962
		},
		{
			"buffer":0,
			"byteLength":139686,
			"byteOffset":815080,
			"target":34963
		}
	],
	"samplers":[
		{
			"magFilter":9729,
			"minFilter":9987
		}
	],
	"buffers":[
		{
			"byteLength":954768,
			"uri":"weapon_pist_cz75a.bin"
		}
	]
}
