{
	"asset":{
		"generator":"Khronos glTF Blender I/O v4.5.49",
		"version":"2.0"
	},
	"scene":0,
	"scenes":[
		{
			"name":"Scene",
			"nodes":[
				0
			]
		}
	],
	"nodes":[
		{
			"mesh":0,
			"name":"legacy",
			"rotation":[
				-0.4999999403953552,
				-0.4999999403953552,
				-0.5000001788139343,
				0.5000000596046448
			],
			"scale":[
				3.000000476837158,
				3.000000476837158,
				3.000000476837158
			]
		}
	],
	"materials":[
		{
			"doubleSided":true,
			"name":"AppliedTextureMaterial",
			"pbrMetallicRoughness":{
				"baseColorTexture":{
					"index":0
				},
				"metallicFactor":0,
				"roughnessFactor":0.5
			}
		}
	],
	"meshes":[
		{
			"name":"legacy.001",
			"primitives":[
				{
					"attributes":{
						"POSITION":0,
						"NORMAL":1,
						"TEXCOORD_0":2,
						"TEXCOORD_1":3
					},
					"indices":4,
					"material":0
				}
			]
		}
	],
	"textures":[
		{
			"sampler":0,
			"source":0
		}
	],
	"images":[
		{
			"mimeType":"image/png",
			"name":"applied_texture",
			"uri":"applied_texture.png"
		}
	],
	"accessors":[
		{
			"bufferView":0,
			"componentType":5126,
			"count":14905,
			"max":[
				21.177013397216797,
				3.8225796222686768,
				4.992222785949707
			],
			"min":[
				-21.17701530456543,
				-3.8225793838500977,
				-4.992222785949707
			],
			"type":"VEC3"
		},
		{
			"bufferView":1,
			"componentType":5126,
			"count":14905,
			"type":"VEC3"
		},
		{
			"bufferView":2,
			"componentType":5126,
			"count":14905,
			"type":"VEC2"
		},
		{
			"bufferView":3,
			"componentType":5126,
			"count":14905,
			"type":"VEC2"
		},
		{
			"bufferView":4,
			"componentType":5123,
			"count":36501,
			"type":"SCALAR"
		}
	],
	"bufferViews":[
		{
			"buffer":0,
			"byteLength":178860,
			"byteOffset":0,
			"target":34962
		},
		{
			"buffer":0,
			"byteLength":178860,
			"byteOffset":178860,
			"target":34962
		},
		{
			"buffer":0,
			"byteLength":119240,
			"byteOffset":357720,
			"target":34962
		},
		{
			"buffer":0,
			"byteLength":119240,
			"byteOffset":476960,
			"target":34962
		},
		{
			"buffer":0,
			"byteLength":73002,
			"byteOffset":596200,
			"target":34963
		}
	],
	"samplers":[
		{
			"magFilter":9729,
			"minFilter":9987
		}
	],
	"buffers":[
		{
			"byteLength":669204,
			"uri":"weapon_mach_negev.bin"
		}
	]
}
