{
	"asset":{
		"generator":"Khronos glTF Blender I/O v4.5.49",
		"version":"2.0"
	},
	"scene":0,
	"scenes":[
		{
			"name":"Scene",
			"nodes":[
				0
			]
		}
	],
	"nodes":[
		{
			"mesh":0,
			"name":"legacy",
			"rotation":[
				-0.4999999403953552,
				-0.4999999403953552,
				-0.5000001788139343,
				0.5000000596046448
			],
			"scale":[
				3.000000476837158,
				3.000000476837158,
				3.000000476837158
			]
		}
	],
	"materials":[
		{
			"doubleSided":true,
			"name":"AppliedTextureMaterial",
			"pbrMetallicRoughness":{
				"baseColorTexture":{
					"index":0
				},
				"metallicFactor":0,
				"roughnessFactor":0.5
			}
		}
	],
	"meshes":[
		{
			"name":"legacy.025",
			"primitives":[
				{
					"attributes":{
						"POSITION":0,
						"NORMAL":1,
						"TEXCOORD_0":2,
						"TEXCOORD_1":3
					},
					"indices":4,
					"material":0
				}
			]
		}
	],
	"textures":[
		{
			"sampler":0,
			"source":0
		}
	],
	"images":[
		{
			"mimeType":"image/png",
			"name":"applied_texture",
			"uri":"applied_texture.png"
		}
	],
	"accessors":[
		{
			"bufferView":0,
			"componentType":5126,
			"count":18783,
			"max":[
				15.313007354736328,
				1.4030919075012207,
				6.205193042755127
			],
			"min":[
				-15.313008308410645,
				-1.4030919075012207,
				-6.205193042755127
			],
			"type":"VEC3"
		},
		{
			"bufferView":1,
			"componentType":5126,
			"count":18783,
			"type":"VEC3"
		},
		{
			"bufferView":2,
			"componentType":5126,
			"count":18783,
			"type":"VEC2"
		},
		{
			"bufferView":3,
			"componentType":5126,
			"count":18783,
			"type":"VEC2"
		},
		{
			"bufferView":4,
			"componentType":5123,
			"count":66522,
			"type":"SCALAR"
		}
	],
	"bufferViews":[
		{
			"buffer":0,
			"byteLength":225396,
			"byteOffset":0,
			"target":34962
		},
		{
			"buffer":0,
			"byteLength":225396,
			"byteOffset":225396,
			"target":34962
		},
		{
			"buffer":0,
			"byteLength":150264,
			"byteOffset":450792,
			"target":34962
		},
		{
			"buffer":0,
			"byteLength":150264,
			"byteOffset":601056,
			"target":34962
		},
		{
			"buffer":0,
			"byteLength":133044,
			"byteOffset":751320,
			"target":34963
		}
	],
	"samplers":[
		{
			"magFilter":9729,
			"minFilter":9987
		}
	],
	"buffers":[
		{
			"byteLength":884364,
			"uri":"weapon_smg_mp5sd.bin"
		}
	]
}
