{
	"asset":{
		"generator":"Khronos glTF Blender I/O v4.5.49",
		"version":"2.0"
	},
	"scene":0,
	"scenes":[
		{
			"name":"Scene",
			"nodes":[
				0
			]
		}
	],
	"nodes":[
		{
			"mesh":0,
			"name":"legacy",
			"rotation":[
				-0.49999988079071045,
				-0.49999988079071045,
				-0.5000001192092896,
				0.5000002384185791
			],
			"scale":[
				2.999999761581421,
				2.999999761581421,
				2.999999761581421
			]
		}
	],
	"materials":[
		{
			"doubleSided":true,
			"name":"AppliedTextureMaterial",
			"pbrMetallicRoughness":{
				"baseColorTexture":{
					"index":0
				},
				"metallicFactor":0,
				"roughnessFactor":0.5
			}
		}
	],
	"meshes":[
		{
			"name":"legacy.008",
			"primitives":[
				{
					"attributes":{
						"POSITION":0,
						"NORMAL":1,
						"TEXCOORD_0":2,
						"TEXCOORD_1":3
					},
					"indices":4,
					"material":0
				}
			]
		}
	],
	"textures":[
		{
			"sampler":0,
			"source":0
		}
	],
	"images":[
		{
			"mimeType":"image/png",
			"name":"applied_texture",
			"uri":"applied_texture.png"
		}
	],
	"accessors":[
		{
			"bufferView":0,
			"componentType":5126,
			"count":11199,
			"max":[
				3.983285903930664,
				0.6239564418792725,
				2.7457380294799805
			],
			"min":[
				-3.9832868576049805,
				-0.6239564418792725,
				-2.7457375526428223
			],
			"type":"VEC3"
		},
		{
			"bufferView":1,
			"componentType":5126,
			"count":11199,
			"type":"VEC3"
		},
		{
			"bufferView":2,
			"componentType":5126,
			"count":11199,
			"type":"VEC2"
		},
		{
			"bufferView":3,
			"componentType":5126,
			"count":11199,
			"type":"VEC2"
		},
		{
			"bufferView":4,
			"componentType":5123,
			"count":29121,
			"type":"SCALAR"
		}
	],
	"bufferViews":[
		{
			"buffer":0,
			"byteLength":134388,
			"byteOffset":0,
			"target":34962
		},
		{
			"buffer":0,
			"byteLength":134388,
			"byteOffset":134388,
			"target":34962
		},
		{
			"buffer":0,
			"byteLength":89592,
			"byteOffset":268776,
			"target":34962
		},
		{
			"buffer":0,
			"byteLength":89592,
			"byteOffset":358368,
			"target":34962
		},
		{
			"buffer":0,
			"byteLength":58242,
			"byteOffset":447960,
			"target":34963
		}
	],
	"samplers":[
		{
			"magFilter":9729,
			"minFilter":9987
		}
	],
	"buffers":[
		{
			"byteLength":506204,
			"uri":"weapon_pist_p250.bin"
		}
	]
}
