{
	"asset":{
		"generator":"Khronos glTF Blender I/O v4.5.49",
		"version":"2.0"
	},
	"scene":0,
	"scenes":[
		{
			"name":"Scene",
			"nodes":[
				0
			]
		}
	],
	"nodes":[
		{
			"mesh":0,
			"name":"legacy",
			"rotation":[
				-0.49999988079071045,
				-0.49999988079071045,
				-0.5000001192092896,
				0.5000002384185791
			],
			"scale":[
				2.999999761581421,
				2.999999761581421,
				2.999999761581421
			]
		}
	],
	"materials":[
		{
			"doubleSided":true,
			"name":"AppliedTextureMaterial",
			"pbrMetallicRoughness":{
				"baseColorTexture":{
					"index":0
				},
				"metallicFactor":0,
				"roughnessFactor":0.5
			}
		}
	],
	"meshes":[
		{
			"name":"legacy.031",
			"primitives":[
				{
					"attributes":{
						"POSITION":0,
						"NORMAL":1,
						"TEXCOORD_0":2,
						"TEXCOORD_1":3
					},
					"indices":4,
					"material":0
				}
			]
		}
	],
	"textures":[
		{
			"sampler":0,
			"source":0
		}
	],
	"images":[
		{
			"mimeType":"image/png",
			"name":"applied_texture",
			"uri":"applied_texture.png"
		}
	],
	"accessors":[
		{
			"bufferView":0,
			"componentType":5126,
			"count":14740,
			"max":[
				20.987897872924805,
				1.8550949096679688,
				5.474087238311768
			],
			"min":[
				-20.987899780273438,
				-1.8550949096679688,
				-5.474086761474609
			],
			"type":"VEC3"
		},
		{
			"bufferView":1,
			"componentType":5126,
			"count":14740,
			"type":"VEC3"
		},
		{
			"bufferView":2,
			"componentType":5126,
			"count":14740,
			"type":"VEC2"
		},
		{
			"bufferView":3,
			"componentType":5126,
			"count":14740,
			"type":"VEC2"
		},
		{
			"bufferView":4,
			"componentType":5123,
			"count":40662,
			"type":"SCALAR"
		}
	],
	"bufferViews":[
		{
			"buffer":0,
			"byteLength":176880,
			"byteOffset":0,
			"target":34962
		},
		{
			"buffer":0,
			"byteLength":176880,
			"byteOffset":176880,
			"target":34962
		},
		{
			"buffer":0,
			"byteLength":117920,
			"byteOffset":353760,
			"target":34962
		},
		{
			"buffer":0,
			"byteLength":117920,
			"byteOffset":471680,
			"target":34962
		},
		{
			"buffer":0,
			"byteLength":81324,
			"byteOffset":589600,
			"target":34963
		}
	],
	"samplers":[
		{
			"magFilter":9729,
			"minFilter":9987
		}
	],
	"buffers":[
		{
			"byteLength":670924,
			"uri":"weapon_snip_g3sg1.bin"
		}
	]
}
