{
	"asset":{
		"generator":"Khronos glTF Blender I/O v4.5.49",
		"version":"2.0"
	},
	"scene":0,
	"scenes":[
		{
			"name":"Scene",
			"nodes":[
				0
			]
		}
	],
	"nodes":[
		{
			"mesh":0,
			"name":"legacy",
			"rotation":[
				-0.4999999403953552,
				-0.4999999403953552,
				-0.5000001788139343,
				0.5000000596046448
			],
			"scale":[
				3.000000476837158,
				3.000000476837158,
				3.000000476837158
			]
		}
	],
	"materials":[
		{
			"doubleSided":true,
			"name":"AppliedTextureMaterial",
			"pbrMetallicRoughness":{
				"baseColorTexture":{
					"index":0
				},
				"metallicFactor":0,
				"roughnessFactor":0.5
			}
		}
	],
	"meshes":[
		{
			"name":"legacy.012",
			"primitives":[
				{
					"attributes":{
						"POSITION":0,
						"NORMAL":1,
						"TEXCOORD_0":2,
						"TEXCOORD_1":3
					},
					"indices":4,
					"material":0
				}
			]
		}
	],
	"textures":[
		{
			"sampler":0,
			"source":0
		}
	],
	"images":[
		{
			"mimeType":"image/png",
			"name":"applied_texture",
			"uri":"applied_texture.png"
		}
	],
	"accessors":[
		{
			"bufferView":0,
			"componentType":5126,
			"count":12912,
			"max":[
				18.873313903808594,
				1.4938255548477173,
				5.454807758331299
			],
			"min":[
				-18.873313903808594,
				-1.4938255548477173,
				-5.454807758331299
			],
			"type":"VEC3"
		},
		{
			"bufferView":1,
			"componentType":5126,
			"count":12912,
			"type":"VEC3"
		},
		{
			"bufferView":2,
			"componentType":5126,
			"count":12912,
			"type":"VEC2"
		},
		{
			"bufferView":3,
			"componentType":5126,
			"count":12912,
			"type":"VEC2"
		},
		{
			"bufferView":4,
			"componentType":5123,
			"count":40305,
			"type":"SCALAR"
		}
	],
	"bufferViews":[
		{
			"buffer":0,
			"byteLength":154944,
			"byteOffset":0,
			"target":34962
		},
		{
			"buffer":0,
			"byteLength":154944,
			"byteOffset":154944,
			"target":34962
		},
		{
			"buffer":0,
			"byteLength":103296,
			"byteOffset":309888,
			"target":34962
		},
		{
			"buffer":0,
			"byteLength":103296,
			"byteOffset":413184,
			"target":34962
		},
		{
			"buffer":0,
			"byteLength":80610,
			"byteOffset":516480,
			"target":34963
		}
	],
	"samplers":[
		{
			"magFilter":9729,
			"minFilter":9987
		}
	],
	"buffers":[
		{
			"byteLength":597092,
			"uri":"weapon_rif_ak47.bin"
		}
	]
}
